<?xml version="1.0" encoding="utf-8"?>
<!-- Generator: Adobe Illustrator 24.0.1, SVG Export Plug-In . SVG Version: 6.00 Build 0)  -->
<svg version="1.1" id="_x33_60_x5F_pizza" xmlns="http://www.w3.org/2000/svg" xmlns:xlink="http://www.w3.org/1999/xlink" x="0px"
	 y="0px" viewBox="0 0 570.4 429.8" style="enable-background:new 0 0 570.4 429.8;" xml:space="preserve">
<style type="text/css">
	.st0{fill:none;}
	.st1{fill:#FFFFFF;}
	.st2{font-family:'Antonio-Light';}
	.st3{font-size:91.9449px;}
	.st4{letter-spacing:16;}
	.st5{letter-spacing:17;}
	.st6{fill:#616161;}
	.st7{fill:none;stroke:#FFFFFF;stroke-width:2;stroke-miterlimit:10;}
	.st8{fill:none;stroke:#FFFFFF;stroke-width:3;stroke-linecap:round;stroke-miterlimit:10;}
	.st9{fill:none;stroke:#FFFFFF;stroke-width:2;stroke-linecap:round;stroke-miterlimit:10;}
	.st10{fill:none;stroke:#FFFFFF;stroke-width:4;stroke-linecap:round;stroke-miterlimit:10;}
</style>
<rect y="322.3" class="st0" width="567.9" height="102.6"/>
<text transform="matrix(1 0 0 1 1.598274e-04 402.358)"><tspan x="0" y="0" class="st1 st2 st3 st4">World</tspan><tspan x="293.3" y="0" class="st1 st2 st3 st5"> </tspan><tspan x="325.6" y="0" class="st1 st2 st3 st4">Pizza</tspan></text>
<path class="st6" d="M353.2,144.7"/>
<path id="SVGID_x5F_1_x5F_" class="st0" d="M185.9,95.8c0,0,102.1-65.5,181.4,0"/>
<text><textPath  xlink:href="#SVGID_x5F_1_x5F_" startOffset="41.819%">
<tspan  class="st1" style="font-family:'Avenir-Book'; font-size:64.6602px; letter-spacing:59;">360</tspan></textPath>
</text>
<circle class="st7" cx="358.5" cy="44.5" r="5.3"/>
<path class="st8" d="M311.8,188.6c-1,4.6-4.7,8.3-9.3,9.3c-9.1,2-17.1-5.9-15.1-15.1c1-4.6,4.7-8.3,9.3-9.3
	C305.8,171.5,313.8,179.5,311.8,188.6z"/>
<path class="st8" d="M317.5,140.2c-0.7,3.3-3.4,6-6.8,6.8c-6.6,1.5-12.4-4.3-11-11c0.7-3.3,3.4-6,6.8-6.8
	C313.2,127.8,319,133.6,317.5,140.2z"/>
<path class="st9" d="M292.1,256c-0.3,1.5-1.5,2.7-3.1,3.1c-3,0.7-5.6-1.9-4.9-4.9c0.3-1.5,1.5-2.7,3.1-3.1
	C290.1,250.4,292.7,253,292.1,256z"/>
<path class="st10" d="M393.6,41.6c-105.7-79.5-185.9-17.7-212.9-0.4c-5,3.2-6.8,9.5-4.2,14.8l71.4,147.6c3.6-2.1,7.8-3.3,12.3-3.3
	c13.1,0.2,24,11.7,23.4,24.8c-0.4,9.6-6.6,17.7-15.1,21l15.1,31.2c1.9,3.9,7.5,3.9,9.4,0l57.3-121c-8.2-4-13.8-12.4-13.8-22.1
	c0-13.6,11-24.7,24.7-24.7c3.7,0,7.1,0.8,10.2,2.2l5.7-12L397.7,56C400.1,50.9,398.1,45,393.6,41.6z M273.8,138.4
	c-1.1,8.7-8.1,15.6-16.7,16.7c-12.7,1.6-23.4-9.1-21.8-21.8c1.1-8.7,8.1-15.6,16.7-16.7C264.7,115,275.4,125.7,273.8,138.4z"/>
<path class="st10" d="M237.5,90.5c0,0,50.7-19.5,101.5,2.3"/>
</svg>
