<?xml version="1.0" encoding="utf-8"?>
<!-- Generator: Adobe Illustrator 23.0.6, SVG Export Plug-In . SVG Version: 6.00 Build 0)  -->
<svg version="1.1" id="_x33_60_x5F_pizza" xmlns="http://www.w3.org/2000/svg" xmlns:xlink="http://www.w3.org/1999/xlink" x="0px"
	 y="0px" viewBox="0 0 570.4 429.8" style="enable-background:new 0 0 570.4 429.8;" xml:space="preserve">
<style type="text/css">
	.st0{fill:none;}
	.st1{enable-background:new    ;}
	.st2{fill:#FFFFFF;}
	.st3{fill:#616161;}
	.st4{font-family:'ArialMT';}
	.st5{font-size:12px;}
	.st6{font-family:'Avenir-Book';}
	.st7{font-size:64.6602px;}
	.st8{letter-spacing:58;}
	.st9{fill:none;stroke:#FFFFFF;stroke-width:2;stroke-miterlimit:10;}
	.st10{fill:none;stroke:#FFFFFF;stroke-width:3;stroke-linecap:round;stroke-miterlimit:10;}
	.st11{fill:none;stroke:#FFFFFF;stroke-width:2;stroke-linecap:round;stroke-miterlimit:10;}
	.st12{fill:none;stroke:#FFFFFF;stroke-width:4;stroke-linecap:round;stroke-miterlimit:10;}
</style>
<rect y="322.3" class="st0" width="567.9" height="102.6"/>
<g class="st1">
	<path class="st2" d="M50.6,323.3h6.3l-9.6,79h-6.6l-9.8-65l-10.5,65h-6.2l-11.2-79h6.6l8.3,64.6l9.9-64.6h5.6L44,387.9L50.6,323.3z
		"/>
	<path class="st2" d="M81.8,356.7c0-7.8,0.7-13.1,2.2-16.1c1.5-2.9,3.5-4.8,6-5.7c1.5-0.5,3.2-0.7,5-0.7c7.6,0,11.8,4.1,12.8,12.3
		c0.3,2.8,0.5,6.2,0.5,10.1v22.6c0,5.3-0.1,8.7-0.3,10.3c-0.2,1.6-0.4,2.9-0.7,4c-1.2,6.4-5.4,9.6-12.5,9.6c-2.9,0-5.2-0.6-7-1.8
		c-3.3-2.3-5.2-6.5-5.7-12.5c-0.2-2.7-0.3-5.9-0.3-9.6V356.7z M101.6,355.1c0-7.7-1-12.4-3.1-14c-0.9-0.7-2-1-3.2-1
		c-3.4,0-5.4,1.9-6.1,5.7c-0.4,2.4-0.7,5.5-0.7,9.3v26.5c0,6.6,0.6,10.9,1.7,12.8c1.1,1.9,2.9,2.9,5.4,2.9c2.5,0,4.1-1.4,4.8-4.1
		c0.8-2.7,1.2-6.6,1.2-11.6V355.1z"/>
	<path class="st2" d="M155.4,334.2c0.1,0,0.2,0.5,0.2,1.4s0,1.9,0,2.9v1.4c-2.4,0-4.5,0.5-6.3,1.4c-1.8,0.9-3.6,2.6-5.3,5.1v55.9
		h-6.7V335h6.7v7.5c0.8-2.6,2.1-4.7,4.1-6.1C150,334.9,152.4,334.2,155.4,334.2z"/>
	<path class="st2" d="M180.9,322.3h6.7v80h-6.7V322.3z"/>
	<path class="st2" d="M236.2,322.3h6.7v80h-6.7v-5.1c-1.6,3.7-4.5,5.6-8.9,5.6c-5,0-8.2-3-9.5-8.9c-0.7-3.3-1.1-7.6-1.1-13.2v-23.7
		c0-9,1.1-15.1,3.3-18.2c2.2-3.1,5.2-4.7,9.2-4.7c1.5,0,2.9,0.5,4.2,1.6c1.3,1.1,2.3,2.4,2.9,4V322.3z M236.3,355.8
		c0-5.8-0.4-9.8-1.3-12.1c-0.9-2.3-2.6-3.5-5.1-3.5c-2.5,0-4.3,1.2-5.1,3.6c-0.9,2.4-1.3,6.5-1.3,12.4v26.7c0,6.2,0.5,10.1,1.5,11.9
		c1,1.7,2.4,2.6,4.3,2.6c1.9,0,3.3-0.4,4.1-1.1s1.5-1.9,2.1-3.5s0.9-4.9,0.9-9.8V355.8z"/>
</g>
<g class="st1">
	<path class="st2" d="M332.8,323.3h13.7c3.2,0,5.8,0.6,7.7,1.8c1.9,1.2,3.1,2.6,3.7,4.1c1.1,2.7,1.7,5.3,2,7.9s0.3,5.6,0.3,9.2v0.8
		c0,6.9-0.4,11.7-1.3,14.5c-0.9,2.8-1.8,4.8-2.9,6.1c-2.2,2.5-5.5,3.8-9.9,3.8h-6.6v30.9h-6.7V323.3z M353.5,347.2v-2.1
		c0-5.8-0.4-10-1.3-12.4s-2.7-3.7-5.3-3.7h-7.4v36.9h7.1c2.8,0,4.6-1.3,5.5-3.9C353.1,359.2,353.5,354.3,353.5,347.2z"/>
	<path class="st2" d="M386.7,322.4h6.7v6.5h-6.7V322.4z M386.7,335h6.7v67.3h-6.7V335z"/>
	<path class="st2" d="M421.5,335h20.8v4.2l-15,57.3h14.1v5.8h-21v-4.8l14.8-56.7h-13.6V335z"/>
	<path class="st2" d="M466,335h20.8v4.2l-15,57.3h14.1v5.8h-21v-4.8l14.8-56.7H466V335z"/>
	<path class="st2" d="M513,355.2c0-4.9,0.1-8,0.4-9.5s0.6-2.7,0.9-3.7c0.3-1.1,0.7-1.9,1.1-2.6c0.4-0.7,1-1.4,1.6-2.1
		c0.6-0.7,1.4-1.3,2.2-1.7s1.8-0.7,2.9-1c1.1-0.3,2.4-0.4,3.7-0.4s2.6,0.1,3.7,0.4s2.1,0.5,2.9,0.8c0.8,0.3,1.6,0.8,2.2,1.6
		c0.6,0.8,1.1,1.4,1.5,2c1.4,1.9,2.2,7.5,2.2,16.6v46.8h-6.7v-5c-0.4,1.2-1.4,2.4-2.9,3.7c-1.5,1.2-3.5,1.9-5.9,1.9
		c-3.5,0-6.2-1.5-8-4.5c-1.8-3-2.7-7.3-2.7-13v-8.6c0-3.1,0.7-5.5,2.2-7.2c1.5-1.7,2.8-2.9,3.8-3.6c2.8-1.8,5.7-3.3,8.6-4.5
		s4.5-1.9,4.9-2.1v-7.5c0-4.3-0.2-6.9-0.5-7.7c-0.3-0.8-0.6-1.4-0.8-1.9c-0.7-1.5-2.2-2.2-4.8-2.2c-2.5,0-4.1,1.1-4.9,3.2
		c-0.7,2.1-1.1,6.1-1.1,12.1v1.7H513V355.2z M531.8,364.8c-4.9,2.2-7.8,3.7-8.6,4.2c-0.8,0.6-1.4,1.2-2,1.8
		c-1.6,1.6-2.3,4.5-2.3,8.8v5.3c0,4.6,0.4,7.9,1.1,9.7c0.7,1.8,2,2.7,3.9,2.7c1.9,0,3.5-0.5,4.9-1.4s2.5-1.9,3.1-3V364.8z"/>
</g>
<path class="st3" d="M353.2,144.7"/>
<path id="SVGID_x5F_1_x5F_" class="st0" d="M185.9,95.8c0,0,102.1-65.5,181.4,0"/>
<text transform="matrix(0.9907 -0.136 0.136 0.9907 261.5739 68.4429)" class="st4 st5"> </text>
<text transform="matrix(0.9999 -1.486045e-02 1.486045e-02 0.9999 264.8237 66.9724)" class="st2 st6 st7 st8">3</text>
<text class="st4 st5"> </text>
<circle class="st9" cx="358.5" cy="44.5" r="5.3"/>
<path class="st10" d="M311.8,188.6c-1,4.6-4.7,8.3-9.3,9.3c-9.1,2-17.1-5.9-15.1-15.1c1-4.6,4.7-8.3,9.3-9.3
	C305.8,171.5,313.8,179.5,311.8,188.6z"/>
<path class="st10" d="M317.5,140.2c-0.7,3.3-3.4,6-6.8,6.8c-6.6,1.5-12.4-4.3-11-11c0.7-3.3,3.4-6,6.8-6.8
	C313.2,127.8,319,133.6,317.5,140.2z"/>
<path class="st11" d="M292.1,256c-0.3,1.5-1.5,2.7-3.1,3.1c-3,0.7-5.6-1.9-4.9-4.9c0.3-1.5,1.5-2.7,3.1-3.1
	C290.1,250.4,292.7,253,292.1,256z"/>
<path class="st12" d="M393.6,41.6c-105.7-79.5-185.9-17.7-212.9-0.4c-5,3.2-6.8,9.5-4.2,14.8l71.4,147.6c3.6-2.1,7.8-3.3,12.3-3.3
	c13.1,0.2,24,11.7,23.4,24.8c-0.4,9.6-6.6,17.7-15.1,21l15.1,31.2c1.9,3.9,7.5,3.9,9.4,0l57.3-121c-8.2-4-13.8-12.4-13.8-22.1
	c0-13.6,11-24.7,24.7-24.7c3.7,0,7.1,0.8,10.2,2.2l5.7-12L397.7,56C400.1,50.9,398.1,45,393.6,41.6z M273.8,138.4
	c-1.1,8.7-8.1,15.6-16.7,16.7c-12.7,1.6-23.4-9.1-21.8-21.8c1.1-8.7,8.1-15.6,16.7-16.7C264.7,115,275.4,125.7,273.8,138.4z"/>
<path class="st12" d="M237.5,90.5c0,0,50.7-19.5,101.5,2.3"/>
</svg>
