<?xml version="1.0" encoding="utf-8"?>
<!-- Generator: Adobe Illustrator 23.0.6, SVG Export Plug-In . SVG Version: 6.00 Build 0)  -->
<svg version="1.1" id="_x33_60_x5F_pizza_1_" xmlns="http://www.w3.org/2000/svg" xmlns:xlink="http://www.w3.org/1999/xlink"
	 x="0px" y="0px" viewBox="0 0 452.6 428.6" style="enable-background:new 0 0 452.6 428.6;" xml:space="preserve">
<style type="text/css">
	.st0{fill:#F7941D;}
	.st1{fill:#616161;}
	.st2{fill:#D73828;}
	.st3{fill:none;stroke:#D73828;stroke-width:2;stroke-miterlimit:10;}
	.st4{fill:none;stroke:#F37121;stroke-width:4;stroke-linecap:round;stroke-miterlimit:10;}
	.st5{fill:none;stroke:#F7941D;stroke-width:2;stroke-linecap:round;stroke-miterlimit:10;}
	.st6{fill:none;stroke:#FFFFFF;stroke-width:2;stroke-linecap:round;stroke-miterlimit:10;}
	.st7{fill:none;stroke:url(#SVGID_1_);stroke-width:5;stroke-linecap:round;stroke-miterlimit:10;}
	.st8{fill:none;stroke:#D73828;stroke-width:4;stroke-linecap:round;stroke-miterlimit:10;}
</style>
<g>
	<path class="st0" d="M48.8,346.4h6.5l-9.8,81.3h-6.8l-10.1-66.9l-10.8,66.9h-6.3L0,346.4h6.7l8.5,66.4l10.2-66.4h5.7L42,412.8
		L48.8,346.4z"/>
	<path class="st0" d="M70.9,369.1c0-9.8,1.2-16.2,3.7-19.2c2.5-3,6.2-4.5,11.4-4.5c5.1,0,8.6,1.7,10.6,5c1.3,2.2,2.1,4.9,2.4,7.8
		c0.3,3,0.5,6.6,0.5,10.9v34.6c0,7-0.4,12-1.3,14.9c-0.8,2.9-1.8,4.9-2.8,6.2c-2.2,2.6-5.6,3.8-10.1,3.8c-6.7,0-11-2.9-12.7-8.7
		c-1.1-3.8-1.7-9.2-1.7-16.2V369.1z M92.6,368.5c0-6.5-0.5-11-1.4-13.6s-2.9-3.9-5.7-3.9c-2.9,0-4.9,1.3-6,4
		c-1.1,2.7-1.7,7.2-1.7,13.5v35.2c0,7.5,0.4,12.3,1.2,14.4s1.6,3.4,2.6,4c0.9,0.6,2.2,0.9,3.7,0.9c1.5,0,2.8-0.3,3.7-0.9
		c0.9-0.6,1.8-1.9,2.5-4c0.8-2.1,1.2-6.9,1.2-14.4V368.5z"/>
	<path class="st0" d="M119.2,346.4H133c5.6,0,9.3,1.2,11.2,3.5c1.4,1.8,2.3,3.9,2.7,6.4c0.4,2.5,0.6,6.2,0.6,11.1s-0.6,8.8-1.7,11.8
		c-1.1,3.1-3.1,5-5.8,5.7c1.1,0.2,2,0.5,2.7,1c0.7,0.5,1.4,1.3,2,2.4c1.8,3.5,2.7,12.3,2.7,26.1c0,5.8,0.1,9.1,0.2,10
		c0.1,0.9,0.4,1.9,0.9,3.2h-6.8c-0.5-0.9-0.8-2.7-0.9-5.2c-0.1-2.6-0.1-6.7-0.1-12.3v-9c0-5.7-0.3-9.3-1-10.8
		c-0.7-1.5-2.7-2.3-6.2-2.3l-7.3-0.5v40.1h-6.9V346.4z M140.6,366c0-4.1-0.2-7.1-0.6-9c-0.4-1.9-1-3.2-1.9-3.9c-0.9-0.7-2.3-1-4.3-1
		H126v30.8h7.2c2.3,0,3.9-0.4,4.8-1.2c0.8-0.8,1.5-2.1,1.9-4c0.4-1.9,0.6-5.6,0.6-11.2V366z"/>
	<path class="st0" d="M167,346.4h6.9v75.8h14.4v5.4H167V346.4z"/>
	<path class="st0" d="M202.6,346.4h12.5c7.3,0,11.9,3,13.9,9c1.2,3.5,1.8,8.2,1.8,14.2l0,34.8c0,8.5-1.2,14.5-3.6,18
		c-2.4,3.5-6.5,5.3-12.4,5.3h-12.2V346.4z M224,368.8c0-5.9-0.7-10.2-2-12.8c-1.4-2.6-3.5-3.9-6.4-3.9h-6.1v69.6h5.7
		c3.8,0,6.3-1.7,7.5-5.2c0.9-2.9,1.4-7.1,1.4-12.8L224,368.8z"/>
	<path class="st0" d="M272.2,346.4h14.1c3.3,0,5.9,0.6,7.9,1.9c1.9,1.2,3.2,2.6,3.9,4.2c1.1,2.8,1.8,5.5,2,8.1
		c0.2,2.6,0.3,5.8,0.3,9.5v0.8c0,7-0.4,12-1.3,14.9c-0.9,2.9-1.9,5-3,6.2c-2.2,2.6-5.6,3.9-10.2,3.9h-6.8v31.8h-6.9V346.4z
		 M293.6,370.9v-2.2c0-6-0.5-10.2-1.4-12.8c-0.9-2.6-2.7-3.8-5.5-3.8h-7.6V390h7.3c2.8,0,4.7-1.3,5.7-4S293.6,378.3,293.6,370.9z"/>
	<path class="st0" d="M318.1,346.4h6.9v81.3h-6.9V346.4z"/>
	<path class="st0" d="M344.9,346.4h22.3v4.7l-15.7,71.1h15.5v5.4h-22.4v-5.8l15.7-70.1h-15.2V346.4z"/>
	<path class="st0" d="M383,346.4h22.3v4.7l-15.7,71.1H405v5.4h-22.4v-5.8l15.7-70.1H383V346.4z"/>
	<path class="st0" d="M431.1,346.4h7l14.5,81.3h-6.6l-2.7-16.5H427l-2.4,16.5H418L431.1,346.4z M442.3,405.5l-7.5-46h-0.1l-6.9,46
		H442.3z"/>
</g>
<path class="st1" d="M312.9,159.5"/>
<g>
	<path class="st2" d="M184.2,51.9l2.6-0.6c1.4-0.3,2.8-0.8,4-1.4c1.2-0.6,2.3-1.4,3.1-2.4c0.8-0.9,1.4-2.1,1.7-3.3
		c0.3-1.3,0.3-2.7-0.1-4.4c-0.6-2.6-1.9-4.5-3.8-5.6s-4.3-1.3-7.2-0.6c-2.1,0.5-3.8,1.4-5.2,2.7c-1.4,1.3-2.3,2.9-2.9,4.9l-4.9-1.2
		c0.9-3,2.3-5.4,4.3-7.2c2-1.8,4.5-3,7.5-3.7c1.9-0.4,3.8-0.6,5.7-0.4c1.8,0.2,3.5,0.6,5.1,1.4c1.5,0.8,2.9,1.9,4,3.3
		c1.1,1.4,1.9,3.1,2.4,5.2c0.3,1.3,0.4,2.7,0.2,4c-0.2,1.3-0.5,2.5-1,3.7c-0.5,1.1-1.2,2.2-2.1,3.1c-0.9,1-1.8,1.7-2.8,2.4l0.2,0.1
		c1.5,0,2.8,0.2,4.2,0.7c1.3,0.5,2.5,1.2,3.6,2.1c1.1,0.9,2,2,2.8,3.3c0.8,1.3,1.4,2.7,1.7,4.2c0.5,2.3,0.6,4.4,0.1,6.3
		c-0.4,1.9-1.2,3.7-2.4,5.2c-1.2,1.5-2.6,2.8-4.4,3.9c-1.8,1.1-3.7,1.8-5.8,2.3c-3.6,0.8-6.9,0.8-10-0.2c-3-0.9-5.6-3-7.8-6.2
		l4.9-2.8c1.4,2.2,3,3.6,4.9,4.4c1.9,0.8,4.3,0.8,7.3,0.1c1.4-0.3,2.6-0.9,3.8-1.6c1.1-0.8,2.1-1.7,2.8-2.7c0.7-1.1,1.2-2.3,1.5-3.6
		c0.3-1.3,0.2-2.7-0.1-4.1c-0.4-1.8-1.1-3.3-2.1-4.4c-1-1.1-2.1-1.9-3.5-2.4c-1.3-0.5-2.8-0.8-4.4-0.8c-1.6,0-3.2,0.2-4.8,0.6
		l-2.1,0.5L184.2,51.9z"/>
	<path class="st2" d="M230.2,45l0.1,0.1c0.8-0.6,1.9-1,3.2-1.3c1.3-0.3,2.6-0.4,3.7-0.5c2.2,0,4.2,0.4,6.1,1.1
		c1.9,0.8,3.5,1.8,4.9,3.2c1.4,1.4,2.5,3,3.3,4.9c0.8,1.9,1.2,4,1.2,6.2c0,2.3-0.4,4.4-1.2,6.3c-0.8,1.9-1.9,3.5-3.4,4.9
		c-1.5,1.4-3.2,2.5-5.2,3.2c-2,0.8-4.2,1.2-6.5,1.2c-2.4,0-4.6-0.3-6.6-1.1c-2-0.7-3.7-1.8-5.2-3.2c-1.5-1.4-2.6-3-3.5-4.9
		c-0.8-1.9-1.2-4-1.3-6.3c0-2.8,0.4-5.2,1.2-7.3c0.8-2.1,1.8-4.2,3-6.2l13.4-22.2l6-0.1L230.2,45z M225.2,59c0,1.6,0.3,3.1,0.9,4.4
		c0.6,1.3,1.3,2.5,2.3,3.4c1,1,2.2,1.7,3.6,2.2c1.4,0.5,2.9,0.8,4.6,0.7c1.7,0,3.2-0.3,4.5-0.8c1.4-0.5,2.5-1.3,3.5-2.3
		c1-1,1.7-2.1,2.3-3.5c0.5-1.3,0.8-2.8,0.8-4.4c0-1.6-0.3-3.1-0.9-4.4c-0.6-1.3-1.3-2.5-2.3-3.4c-1-0.9-2.2-1.7-3.6-2.2
		c-1.4-0.5-2.9-0.8-4.6-0.8c-1.7,0-3.2,0.3-4.5,0.9c-1.4,0.6-2.5,1.3-3.5,2.3c-1,1-1.7,2.1-2.3,3.4C225.4,55.9,225.2,57.4,225.2,59z
		"/>
	<path class="st2" d="M289.9,29.2c3.5,0.9,6.1,2.5,7.8,4.7c1.7,2.2,2.8,4.7,3.4,7.5c0.5,2.8,0.6,5.7,0.2,8.8
		c-0.4,3.1-0.9,5.9-1.7,8.6c-0.7,2.7-1.7,5.5-2.9,8.3c-1.2,2.8-2.7,5.3-4.6,7.5c-1.9,2.2-4.1,3.7-6.7,4.8c-2.6,1-5.6,1.1-9.1,0.1
		c-3.5-0.9-6.1-2.5-7.8-4.7c-1.7-2.2-2.8-4.7-3.4-7.5c-0.5-2.8-0.6-5.7-0.2-8.8c0.4-3.1,0.9-5.9,1.7-8.6c0.7-2.7,1.7-5.5,2.9-8.3
		c1.2-2.8,2.7-5.3,4.6-7.5c1.9-2.2,4.1-3.7,6.7-4.8C283.4,28.3,286.4,28.2,289.9,29.2z M288.7,33.7c-2.7-0.7-4.9-0.6-6.9,0.4
		c-1.9,1-3.5,2.5-4.9,4.4c-1.3,1.9-2.4,4-3.3,6.3c-0.8,2.3-1.5,4.4-2.1,6.4s-1,4.1-1.4,6.5c-0.4,2.4-0.6,4.8-0.3,7.1
		c0.2,2.3,0.9,4.4,2,6.2c1.2,1.8,3.1,3.1,5.7,3.8c2.7,0.7,4.9,0.6,6.9-0.4c1.9-1,3.5-2.5,4.9-4.4c1.3-1.9,2.4-4,3.3-6.3
		c0.8-2.3,1.5-4.4,2.1-6.4c0.5-1.9,1-4.1,1.4-6.5c0.4-2.4,0.5-4.8,0.3-7.1c-0.2-2.3-0.9-4.4-2-6.2C293.2,35.7,291.3,34.4,288.7,33.7
		z"/>
</g>
<circle class="st3" cx="318.7" cy="49.2" r="5.9"/>
<path class="st4" d="M267.3,207.8c-1.1,5.1-5.2,9.1-10.3,10.3c-10,2.2-18.8-6.5-16.6-16.6c1.1-5.1,5.2-9.1,10.3-10.3
	C260.8,189,269.5,197.7,267.3,207.8z"/>
<path class="st4" d="M273.7,154.6c-0.8,3.7-3.8,6.7-7.5,7.5c-7.3,1.6-13.7-4.7-12.1-12.1c0.8-3.7,3.8-6.7,7.5-7.5
	C268.9,140.9,275.3,147.3,273.7,154.6z"/>
<path class="st5" d="M245.6,281.9c-0.4,1.7-1.7,3-3.4,3.4c-3.3,0.7-6.2-2.1-5.4-5.4c0.4-1.7,1.7-3,3.4-3.4
	C243.5,275.7,246.4,278.6,245.6,281.9z"/>
<path class="st6" d="M339,110"/>
<linearGradient id="SVGID_1_" gradientUnits="userSpaceOnUse" x1="240.087" y1="0" x2="240.087" y2="311.0807">
	<stop  offset="0" style="stop-color:#D73828"/>
	<stop  offset="0.2256" style="stop-color:#E55524"/>
	<stop  offset="0.4392" style="stop-color:#EF6A22"/>
	<stop  offset="0.5797" style="stop-color:#F37121"/>
	<stop  offset="1" style="stop-color:#F9A01B"/>
</linearGradient>
<path class="st7" d="M357.3,46.1c-116.2-87.5-204.5-19.5-234.2-0.5c-5.4,3.5-7.4,10.5-4.6,16.3L197,224.3c4-2.3,8.6-3.7,13.5-3.6
	c14.4,0.2,26.4,12.9,25.7,27.2c-0.5,10.6-7.2,19.5-16.6,23.1l16.6,34.3c2.1,4.3,8.3,4.3,10.3,0l63.1-133.1
	c-9-4.4-15.2-13.6-15.2-24.3c0-15,12.1-27.1,27.1-27.1c4,0,7.8,0.9,11.2,2.5L339,110l22.8-48.1C364.5,56.3,362.3,49.8,357.3,46.1z
	 M225.5,152.6c-1.2,9.5-8.9,17.2-18.4,18.4c-14,1.8-25.7-10-24-24c1.2-9.5,8.9-17.2,18.4-18.4C215.5,126.9,227.3,138.6,225.5,152.6z
	"/>
<path class="st8" d="M185.6,99.9c0,0,55.8-21.5,111.6,2.5"/>
</svg>
