<?xml version="1.0" encoding="utf-8"?>
<!-- Generator: Adobe Illustrator 23.0.6, SVG Export Plug-In . SVG Version: 6.00 Build 0)  -->
<svg version="1.1" id="bga" xmlns="http://www.w3.org/2000/svg" xmlns:xlink="http://www.w3.org/1999/xlink" x="0px" y="0px"
	 viewBox="0 0 556.4 161.1" style="enable-background:new 0 0 556.4 161.1;" xml:space="preserve">
<style type="text/css">
	.st0{fill:#FFFFFF;}
</style>
<g id="bga_1_">
	<path class="st0" d="M327.2,126.3c1.9-0.7,8.1-11.1,10.5-16.8c2.3-5.6,4.6-12.1,5.4-14.3c0.4-1.1,12.2-34.9,12.9-36
		c0.4-0.6,5.5-4.8,6.8-5.8c1.3-1.1,15.1-8.4,17.3-9.2c1.4-0.5,6-3.5,6.9-4.1c0.8-0.6,4.6-2.3,6.9-3.9c1.1-0.8,4.3-4.1,4-5.1
		c-0.3-1-0.9-2.5-2.3-3.1c-1.4-0.6-1.6-2.7-1.7-3.6c0-0.9-1.6-6.6-4.3-7.8c-2.8-1.3-5.6-1.6-7.9-0.9c-2.2,0.7-3.8,1.6-5.1,1.1
		c-1.3-0.5-2.4-4-2.8-5.3c-0.4-1.3-1.1-3.2-2.4-2.9c-1.3,0.3-3.3-0.5-4.3-0.2c-1,0.3-1.8,2.1-2.9,2.4c-1.1,0.3-2.7,0.5-3.9,3.8
		c-1.2,3.3-1,4.8-1,4.8s-0.2,1.2-1,0.6c-0.8-0.5-1.5-2-1.8-3.2c-0.3-1.1,0.8-2.7-0.1-3.8c-0.9-1.1-3.8-4.8-4.7-5.1
		C350.8,7.5,350,7.5,349,8c-1,0.5-2.4,2-3.4,2.5c-1.1,0.5-1.8,0.5-2.6,0.3c-0.8-0.2-2.1-0.7-3.7,0.6c-1.6,1.3-1.9,2.5-3.3,2.8
		c-1.3,0.2-4.6,0.4-6.6,1.8c-2.8,1.8-3,3-5,4.6c-1.4,1.2-3.3,2.3-4.3,3.3c-1,1-1.4,1.7-0.4,3.8c1,2.1,6.1,7.3,10.6,11.5
		c4.5,4.2,7.1,7,8.5,7.9c1.5,0.9,5.4,5,6.9,5.9c1.3,0.8,4.2,3.2,5.2,5.4c0.7,1.5-9.8,36.5-10.1,38.5c-0.3,1.6-2.8,9.2-3.1,10
		c-0.5,1.3-2.6,5.9-3.7,7.9c-1.3,2.4-4.9,8.1-7.2,10.4C324.7,127.2,325.3,127,327.2,126.3"/>
	<path class="st0" d="M18.6,46.9c0-17.5,0-20.6-0.2-24.2c-0.2-3.8-1.1-5.6-4.8-6.4c-0.9-0.2-2.8-0.3-3.8-0.3c-0.4,0-0.9-0.2-0.9-0.7
		c0-0.7,0.6-0.9,1.8-0.9c5,0,12.1,0.3,12.7,0.3c2.7,0,7.1-0.3,12.2-0.3c18.4,0,22.4,11.2,22.4,16.8c0,9.2-5.3,14.7-10.5,20.2
		C55.7,54,66.8,61.9,66.8,75c0,12-9.4,24.4-28.5,24.4c-1.2,0-4.8-0.2-8.1-0.3c-3.2-0.2-6.4-0.3-6.8-0.3c-0.2,0-2.1,0-4.5,0.1
		c-2.2,0-4.8,0.2-6.5,0.2c-1.2,0-1.8-0.2-1.8-0.9c0-0.3,0.2-0.7,0.9-0.7c1,0,2.3-0.2,3.4-0.4c2.2-0.4,2.8-2.9,3.2-6.2
		c0.6-4.7,0.6-13.5,0.6-24.3V46.9z M27.6,49.4c0,0.8,0.2,1,0.8,1.2c0.7,0.1,2.7,0.4,6.8,0.4c6.3,0,7.8-0.2,10.2-2.9
		c2.4-2.7,4-6.7,4-11.3c0-9.3-4.1-19.3-15.1-19.3c-1.2,0-3.6,0.1-5.4,0.6c-1,0.2-1.3,0.6-1.3,1.2V49.4z M27.6,61.2
		c0,8.6,0,22.5,0.1,24.2c0.3,5.5,0.3,7.1,3.8,8.7c3,1.5,7.8,1.7,9.8,1.7c6,0,15.8-3.2,15.8-15.9c0-6.7-2.2-16.5-10.9-22.4
		c-3.8-2.6-6.6-2.9-9.3-3.2c-1.5-0.2-7.1-0.2-8.7-0.2c-0.4,0-0.7,0.2-0.7,0.8V61.2z"/>
	<path class="st0" d="M104.7,37.9c18.4,0,32.4,11.3,32.4,29.7c0,17.7-13.1,32.3-32.8,32.3c-22.4,0-32-16.8-32-31.1
		C72.2,56,82.1,37.9,104.7,37.9 M106.6,96.6c7.3,0,22.1-3.9,22.1-26.8c0-19-11.5-28.9-24.5-28.9c-13.7,0-23.5,8.6-23.5,25.8
		C80.7,85.1,91.8,96.6,106.6,96.6"/>
	<path class="st0" d="M206,87.1h0.4c2-6.5,9.4-29.4,12.3-39.5c0.8-3,0.9-3.9,0.9-4.9c0-1.4-0.7-2.3-4.4-2.3c-0.5,0-0.8-0.5-0.8-0.8
		c0-0.4,0.4-0.6,1.4-0.6c4.2,0,7.6,0.2,8.4,0.2c0.6,0,4.1-0.2,6.6-0.2c0.7,0,1.1,0.2,1.1,0.5c0,0.4-0.2,0.8-0.7,0.8
		c-0.3,0-1.9,0.1-2.8,0.4c-2.4,0.8-3.7,4-5.3,8.4c-3.6,10-11.7,35.1-15,44c-2.1,5.9-2.6,6.8-3.5,6.8c-0.8,0-1.6-1-2.7-4.1l-16-43.2
		c-2.8,6.9-13.9,35.8-16.8,43.2c-1.4,3.3-2,4.2-2.9,4.2c-0.8,0-1.5-0.8-3.2-6.2l-14.5-46.9c-1.3-4.2-2.1-5.2-4.3-6
		c-1.1-0.4-3.2-0.5-3.7-0.5c-0.4,0-0.7-0.3-0.7-0.8c0-0.4,0.6-0.6,1.3-0.6c4.3,0,8.8,0.2,9.7,0.2c0.7,0,4.5-0.2,8.6-0.2
		c1.1,0,1.5,0.2,1.5,0.6c0,0.5-0.5,0.8-0.8,0.8c-0.7,0-2,0-2.9,0.5c-0.6,0.2-1.1,0.7-1.1,1.7c0,1,0.7,3.8,1.6,7.3
		c1.3,5,9.7,34,10.7,37.3h0.2l17.1-44.2c1.2-3.2,1.8-3.6,2.2-3.6c0.6,0,1.2,1,2.2,3.7L206,87.1z"/>
	<path class="st0" d="M244,61.9c0-12.3,0-14.5-0.2-17c-0.2-2.7-0.7-4-3.3-4.4c-0.7-0.1-2-0.2-2.8-0.2c-0.3,0-0.7-0.4-0.7-0.7
		c0-0.5,0.4-0.7,1.3-0.7c3.7,0,9,0.2,9.5,0.2c0.6,0,17.7,0.1,19.5,0c1.6-0.1,3.1-0.4,3.7-0.5c0.4-0.1,0.7-0.4,1.1-0.4
		c0.3,0,0.4,0.4,0.4,0.8c0,0.6-0.5,1.5-0.6,3.7c-0.1,0.7-0.3,4.3-0.5,5.2c-0.1,0.4-0.4,0.8-0.7,0.8c-0.5,0-0.7-0.4-0.7-1
		c0-0.6-0.1-1.9-0.5-2.8c-0.6-1.3-1.4-1.9-5.9-2.4c-1.4-0.2-10.9-0.3-11.8-0.3c-0.4,0-0.5,0.3-0.5,0.8v21.5c0,0.6,0,0.8,0.5,0.8
		c1,0,11.8,0,13.7-0.2c2-0.2,3.2-0.3,4-1.1c0.6-0.6,0.9-1,1.2-1c0.3,0,0.5,0.2,0.5,0.7c0,0.5-0.5,1.8-0.6,4.4
		c-0.2,1.6-0.4,4.6-0.4,5.1c0,0.7-0.2,1.5-0.7,1.5c-0.4,0-0.6-0.3-0.6-0.7c0-0.7,0-1.6-0.4-2.6c-0.3-1.1-1-2.1-4.2-2.4
		c-2.2-0.3-11-0.4-12.4-0.4c-0.5,0-0.6,0.3-0.6,0.6v6.6c0,2.7-0.1,11.9,0,13.5c0.2,5.3,1.7,6.3,9.8,6.3c2.1,0,6,0,8.2-0.8
		c2.1-0.9,3.3-2.3,3.7-5.5c0.2-0.9,0.4-1.2,0.8-1.2c0.5,0,0.6,0.6,0.6,1.2c0,0.6-0.6,5.9-1.1,7.6c-0.6,2-1.4,2-4.6,2
		c-6.1,0-10.9-0.2-14.2-0.3c-3.4-0.2-5.6-0.2-6.8-0.2c-0.2,0-1.8,0-3.5,0.1c-1.6,0.1-3.4,0.2-4.7,0.2c-0.8,0-1.3-0.2-1.3-0.7
		c0-0.3,0.2-0.7,0.7-0.7c0.7,0,1.8-0.3,2.5-0.4c1.6-0.3,1.8-1.9,2.1-4.2c0.5-3.3,0.5-9.5,0.5-17.1V61.9z"/>
	<path class="st0" d="M294.1,61.9c0-12.3,0-14.5-0.2-17c-0.2-2.7-0.7-4-3.4-4.4c-0.6-0.1-2-0.2-2.8-0.2c-0.3,0-0.7-0.4-0.7-0.7
		c0-0.5,0.4-0.7,1.3-0.7c3.7,0,9.2,0.2,9.7,0.2c0.8,0,7.7-0.2,10.2-0.2c5.2,0,11,0.5,15.3,3.4c2,1.5,5.7,5.3,5.7,10.8
		c0,5.9-2.4,11.5-10,18c6.7,8.4,35.9,27.4,46.2,34c5.2,3.4,12.3,6.1,14.4,6.4c1.6,0.3,2.4,0.3,2.9,0.3c0.5,0,0.7,0.4,0.7,0.7
		c0,0.5-0.5,0.7-2,0.7h-5.1c-4.7,0-12-1.4-14-2.5c-3.5-1.9-31.1-18.3-37-23.1c-5.1-4.1-10.3-11.5-12.1-13.7
		c-0.4-0.4-0.6-0.5-1.1-0.5l-10.4-0.2c-0.4,0-0.6,0.2-0.6,0.6V76c0,7.6,0,13.8,0.4,17c0.3,2.3,0.7,3.8,3.2,4.2
		c1.1,0.2,2.9,0.4,3.6,0.4c0.6,0,0.7,0.4,0.7,0.7c0,0.4-0.4,0.6-1.3,0.6c-4.5,0-9.7-0.3-10-0.3c-0.1,0-5.6,0.3-8.1,0.3
		c-0.8,0-1.3-0.2-1.3-0.6c0-0.3,0.2-0.7,0.7-0.7c0.7,0,1.8-0.2,2.5-0.4c1.6-0.4,1.8-1.9,2.1-4.2c0.5-3.2,0.5-9.5,0.5-17.1V61.9z
		 M301.2,68.6c0,0.5,0.2,0.7,0.6,1c1.2,0.7,5.4,1.2,9,1.2c1.9,0,4.2-0.1,6.1-1.4c2.8-1.9,4.9-6,4.9-12.1c0-9.9-5.4-15.5-14.1-15.5
		c-2.4,0-5,0.3-5.9,0.5c-0.4,0.2-0.7,0.5-0.7,0.9V68.6z"/>
	<path class="st0" d="M381.7,68.4c-0.7-2-1.3-2-2,0l-11.5,35.4l-2.4,6.7l-7.9,23.2c-1.2,3.3-1.8,6.4-1.8,8.8c0,2.6,2.8,3.8,5,3.8
		h1.3c0.9,0,1.3,0.3,1.3,0.8c0,0.8-0.8,1.1-2,1.1c-3.2,0-8.8-0.4-10.2-0.4c-1.4,0-8.7,0.4-14.8,0.4c-1.7,0-2.5-0.3-2.5-1.1
		c0-0.5,0.5-0.8,1.2-0.8c0.9,0,2.8-0.1,3.8-0.3c6-0.8,8.7-5.8,11-12.3L380,52.2c1.6-4.3,2.1-5.1,2.9-5.1c0.8,0,1.3,0.7,2.9,4.7
		c2,5,22.6,59.2,30.6,79.2c4.7,11.7,8.5,13.8,11.3,14.6c2,0.7,3.9,0.8,5.3,0.8c0.8,0,1.3,0.1,1.3,0.8c0,0.8-1.2,1.1-2.6,1.1
		c-2,0-11.6,0-20.6-0.3c-2.5-0.1-3.9-0.1-3.9-0.9c0-0.5,0.4-0.8,0.9-0.9c0.8-0.3,1.6-1.4,0.8-3.5l-12.2-32.3L381.7,68.4z"/>
	<g>
		<path class="st0" d="M171.8,134.8c0-4.1-0.1-4.7-2.3-5.1c-0.4-0.1-1.3-0.1-1.8-0.1c-0.2,0-0.4-0.2-0.4-0.4c0-0.4,0.2-0.4,0.8-0.4
			c2.4,0,5.9,0.1,6.2,0.1c0.2,0,3.5-0.1,5.1-0.1c0.6,0,0.8,0.1,0.8,0.4c0,0.2-0.2,0.4-0.4,0.4c-0.4,0-0.7,0-1.3,0.1
			c-1.4,0.2-1.8,1-2,2.8c-0.1,1.6-0.1,3.1-0.1,5.2v5.7c0,2.3-0.1,2.4-0.7,2.7c-3.3,1.7-8.1,2.3-11.2,2.3c-4,0-11.5-0.5-17.3-5.4
			c-3.2-2.7-6.3-8.1-6.3-14.4c0-8.1,4.1-13.8,8.8-16.6c4.7-2.9,10-3.2,14-3.2c3.3,0,7,0.6,8.1,0.8c1.1,0.2,2.9,0.5,4.2,0.5
			c0.5,0,0.7,0.2,0.7,0.5c0,0.7-0.3,2.1-0.3,7.2c0,0.8-0.2,1.1-0.6,1.1c-0.3,0-0.4-0.3-0.4-0.8c-0.1-0.7-0.4-2.1-1.2-3.3
			c-1.3-1.9-5.3-3.9-12.1-3.9c-3.2,0-7,0.2-11,3.3c-3,2.3-5.2,6.9-5.2,12.8c0,7.2,3.7,12.3,5.5,14c4.2,3.9,8.6,5.3,13.4,5.3
			c1.8,0,4.3-0.2,5.7-1c0.7-0.4,1.1-0.6,1.1-1.6V134.8z"/>
		<path class="st0" d="M187.6,124c0-7.9,0-9.3-0.1-10.9c-0.1-1.7-0.4-2.6-2.1-2.8c-0.4-0.1-1.3-0.1-1.8-0.1c-0.2,0-0.4-0.2-0.4-0.4
			c0-0.3,0.2-0.4,0.8-0.4c2.4,0,5.9,0.1,6.2,0.1c0.5,0,5-0.1,6.6-0.1c3.3,0,7,0.3,9.8,2.2c1.3,1,3.6,3.4,3.6,6.9
			c0,3.8-1.6,7.4-6.4,11.6c4.3,5.4,7.9,10,11,13.1c2.8,2.9,4.5,3.3,5.8,3.5c1,0.2,1.6,0.2,1.8,0.2c0.3,0,0.5,0.2,0.5,0.4
			c0,0.3-0.3,0.4-1.3,0.4h-3.3c-3,0-4.3-0.3-5.6-1c-2.3-1.2-4.2-3.6-7.2-7.5c-2.2-2.7-4.5-6-5.7-7.4c-0.2-0.2-0.4-0.3-0.7-0.3
			l-6.7-0.1c-0.2,0-0.4,0.1-0.4,0.4v1.2c0,4.9,0,8.8,0.2,10.9c0.2,1.5,0.5,2.4,2.1,2.7c0.7,0.1,1.8,0.2,2.3,0.2
			c0.4,0,0.4,0.2,0.4,0.4c0,0.2-0.2,0.4-0.8,0.4c-2.9,0-6.2-0.2-6.4-0.2c-0.1,0-3.6,0.2-5.2,0.2c-0.5,0-0.8-0.1-0.8-0.4
			c0-0.2,0.1-0.4,0.4-0.4c0.5,0,1.1-0.1,1.6-0.2c1-0.2,1.1-1.2,1.4-2.7c0.3-2.1,0.3-6.1,0.3-11V124z M192.1,128.3
			c0,0.3,0.1,0.5,0.4,0.7c0.8,0.4,3.5,0.8,5.8,0.8c1.3,0,2.7-0.1,3.9-0.9c1.8-1.2,3.2-3.9,3.2-7.8c0-6.3-3.5-10-9.1-10
			c-1.6,0-3.2,0.2-3.8,0.3c-0.2,0.1-0.4,0.3-0.4,0.6V128.3z"/>
		<path class="st0" d="M238.6,108.6c11.8,0,20.8,7.2,20.8,19c0,11.3-8.4,20.7-21.1,20.7c-14.4,0-20.5-10.8-20.5-19.9
			C217.8,120.3,224.1,108.6,238.6,108.6z M239.8,146.3c4.7,0,14.2-2.5,14.2-17.2c0-12.2-7.4-18.6-15.7-18.6
			c-8.8,0-15.1,5.5-15.1,16.5C223.2,138.9,230.3,146.3,239.8,146.3z"/>
		<path class="st0" d="M264.5,124c0-7.9,0-9.3-0.1-10.9c-0.1-1.6-0.4-2.6-2.1-2.8c-0.4-0.1-1.3-0.1-1.8-0.1c-0.2,0-0.4-0.2-0.4-0.4
			c0-0.3,0.2-0.4,0.8-0.4c2.4,0,5.5,0.1,6,0.1c0.5,0,3.8-0.1,5.3-0.1c0.6,0,0.9,0.1,0.9,0.4c0,0.2-0.2,0.4-0.5,0.4
			c-0.4,0-0.7,0-1.3,0.1c-1.4,0.2-1.7,1.1-1.8,2.8c-0.1,1.6-0.1,3-0.1,10.9v7.1c0,7.3,1.6,10.4,3.9,12.4c2.6,2.3,4.8,2.7,7.8,2.7
			c3.2,0,6.3-1.4,8.1-3.6c2.4-2.9,3-7.1,3-12.3V124c0-7.9-0.1-9.3-0.1-10.9c-0.1-1.6-0.4-2.6-2.1-2.8c-0.4-0.1-1.3-0.1-1.8-0.1
			c-0.2,0-0.4-0.2-0.4-0.4c0-0.3,0.2-0.4,0.8-0.4c2.3,0,5.4,0.1,5.7,0.1c0.4,0,2.9-0.1,4.4-0.1c0.6,0,0.8,0.1,0.8,0.4
			c0,0.2-0.2,0.4-0.4,0.4c-0.4,0-0.7,0-1.3,0.1c-1.4,0.3-1.7,1.1-1.8,2.8c-0.1,1.6-0.1,3-0.1,10.9v5.4c0,5.5-0.7,11.6-4.9,15.2
			c-3.8,3.3-7.9,3.7-11,3.7c-1.7,0-7.2-0.1-10.9-3.6c-2.6-2.4-4.6-5.9-4.6-13.3V124z"/>
		<path class="st0" d="M306.1,124c0-7.9,0-9.3-0.1-10.9c-0.1-1.7-0.4-2.6-2.1-2.8c-0.4-0.1-1.3-0.1-1.8-0.1c-0.2,0-0.4-0.2-0.4-0.4
			c0-0.3,0.2-0.4,0.8-0.4c2.4,0,5.7,0.1,6.1,0.1c1.1,0,5.1-0.1,7.5-0.1c6.7,0,9.1,2.1,10,2.9c1.2,1.1,2.6,3.3,2.6,6.1
			c0,7.3-5.5,12.1-13.5,12.1c-0.3,0-1.2,0-1.5-0.1c-0.2,0-0.5-0.2-0.5-0.5c0-0.4,0.3-0.5,1.4-0.5c5.7,0,9.7-3.6,9.7-8.2
			c0-1.7-0.2-5-3-7.7c-2.7-2.7-5.9-2.4-7.1-2.4c-0.9,0-2.4,0.2-2.9,0.4c-0.3,0.1-0.4,0.4-0.4,1V133c0,4.9,0,8.9,0.2,11
			c0.2,1.5,0.5,2.4,2.1,2.7c0.7,0.1,1.8,0.2,2.3,0.2c0.3,0,0.4,0.2,0.4,0.4c0,0.2-0.2,0.4-0.8,0.4c-2.9,0-6.3-0.2-6.6-0.2
			c-0.2,0-3.6,0.2-5.2,0.2c-0.5,0-0.8-0.1-0.8-0.4c0-0.2,0.1-0.4,0.4-0.4c0.5,0,1.1-0.1,1.6-0.2c1-0.2,1.1-1.2,1.4-2.7
			c0.3-2.1,0.3-6.1,0.3-11V124z"/>
	</g>
	<g>
		<path class="st0" d="M424.5,124.8c-1.2-0.6-1.3-0.9-1.3-3.2c0-4.2,0.4-7.5,0.5-8.9c0-0.9,0.2-1.4,0.7-1.4c0.5,0,0.8,0.3,0.8,1
			c0,0.7,0,1.9,0.3,3.1c1.4,6.1,7.9,8.3,13.8,8.3c8.6,0,13.1-4.8,13.1-11.2c0-6-3.3-8.9-11-14.6l-4-3c-9.4-7-12.5-12.2-12.5-18
			c0-9.9,7.8-15.8,19.3-15.8c3.5,0,6.9,0.5,9,1c1.7,0.4,2.4,0.4,3.1,0.4c0.7,0,0.9,0.1,0.9,0.6c0,0.4-0.4,3.2-0.4,8.9
			c0,1.3-0.1,1.9-0.7,1.9c-0.6,0-0.7-0.4-0.8-1.1c-0.1-1-0.8-3.3-1.3-4.2c-0.6-1-3.5-4.2-11.3-4.2c-6.3,0-11.6,3.2-11.6,9.1
			c0,5.3,2.7,8.4,11.3,14.2l2.5,1.7c10.6,7.2,14.2,13.1,14.2,20.3c0,4.9-1.9,10.3-8.1,14.3c-3.7,2.4-9.1,3-13.8,3
			C433.1,127.1,428.1,126.5,424.5,124.8z"/>
		<path class="st0" d="M477.8,101.6c0,8.1,0,14.7,0.4,18.2c0.3,2.5,0.6,4.1,3.2,4.5c1.3,0.2,3.2,0.4,4,0.4c0.5,0,0.7,0.4,0.7,0.7
			c0,0.4-0.4,0.7-1.4,0.7c-4.8,0-10.5-0.3-10.9-0.3c-0.5,0-5.9,0.3-8.6,0.3c-0.9,0-1.4-0.2-1.4-0.7c0-0.3,0.2-0.7,0.7-0.7
			c0.8,0,1.9-0.2,2.7-0.4c1.7-0.4,2-2,2.3-4.5c0.4-3.5,0.5-10.1,0.5-18.2V86.8c0-13.1,0-15.4-0.2-18.1c-0.2-2.9-0.9-4.2-2.8-4.5
			c-1-0.2-2.1-0.3-2.7-0.3c-0.4,0-0.7-0.4-0.7-0.7c0-0.5,0.4-0.7,1.4-0.7c2.9,0,8.3,0.2,8.8,0.2c0.4,0,6-0.2,8.7-0.2
			c1,0,1.4,0.2,1.4,0.7c0,0.3-0.4,0.7-0.7,0.7c-0.6,0-1.2,0-2.2,0.2c-2.4,0.5-2.9,1.7-3.1,4.6c-0.1,2.7-0.1,5-0.1,18.1V101.6z"/>
		<path class="st0" d="M509.7,64.1c1.1-2.8,1.5-3.3,2.1-3.3c0.9,0,1.2,1.2,2.1,3.1c1.6,3.6,15.5,38.3,20.9,51
			c3.2,7.5,5.5,8.6,7.4,9.2c1.3,0.4,2.6,0.5,3.5,0.5c0.5,0,1.1,0.2,1.1,0.7c0,0.5-1,0.7-2,0.7c-1.3,0-7.7,0-13.8-0.2
			c-1.7-0.1-3.1-0.1-3.1-0.6c0-0.4,0.2-0.4,0.6-0.6c0.5-0.2,1.4-0.9,0.8-2.3l-7.8-19.3c-0.2-0.4-0.3-0.5-0.8-0.5h-20.1
			c-0.4,0-0.7,0.2-0.9,0.7l-4.9,13.5c-0.8,2.1-1.3,4.2-1.3,5.6c0,1.7,1.5,2.3,3,2.3h0.8c0.7,0,0.9,0.3,0.9,0.7
			c0,0.5-0.5,0.7-1.3,0.7c-2.1,0-6.8-0.3-7.8-0.3c-0.9,0-5.2,0.3-8.8,0.3c-1.1,0-1.7-0.2-1.7-0.7c0-0.4,0.4-0.7,0.8-0.7
			c0.6,0,1.9-0.1,2.6-0.2c4-0.5,5.6-3.5,7.3-7.7L509.7,64.1z M519.4,99.1c0.4,0,0.4-0.2,0.3-0.6l-8.6-23c-0.5-1.3-1-1.3-1.5,0
			l-8.1,23c-0.1,0.4,0,0.6,0.3,0.6H519.4z"/>
	</g>
</g>
</svg>
