<?xml version="1.0" encoding="utf-8"?>
<!-- Generator: Adobe Illustrator 23.0.6, SVG Export Plug-In . SVG Version: 6.00 Build 0)  -->
<svg version="1.1" id="grey_x5F_instagram" xmlns="http://www.w3.org/2000/svg" xmlns:xlink="http://www.w3.org/1999/xlink" x="0px"
	 y="0px" viewBox="0 0 71.8 71.8" style="enable-background:new 0 0 71.8 71.8;" xml:space="preserve">
<style type="text/css">
	.st0{fill:#F2F0F0;}
</style>
<path id="logo" class="st0" d="M71.2,18c-0.5-4.7-2.3-8.9-5.8-12.3c-3.7-3.5-8.2-5.1-13.2-5.3c-8.4-0.5-28.5-0.8-35.5,0.4
	c-8,1.3-13.3,6-15.5,13.9C-0.5,20.9-0.2,49,0.8,55.1C2.2,63.4,7,68.7,15.2,70.8C20.9,72.2,48.8,72,55,71c8.3-1.3,13.6-6.2,15.7-14.4
	C72.4,50.4,71.8,23.7,71.2,18z M64.6,53.9c-1,6.3-5.1,10.2-11.4,10.8c-5.8,0.6-31.7,1-37-0.5c-5.1-1.4-8.1-5-8.9-10.1
	c-0.8-4.9-1-29.6,0-36.2c0.9-6.3,5-10.2,11.3-10.9C25,6.3,47.9,6.2,54,7.2c6.3,1,10.1,5.1,10.8,11.5C65.4,24.5,65.6,47.6,64.6,53.9z
	 M35.9,17.5c-10.2,0-18.4,8.2-18.4,18.4s8.2,18.4,18.4,18.4s18.4-8.2,18.4-18.4C54.3,25.7,46.1,17.5,35.9,17.5z M35.8,47.8
	c-6.6-0.1-11.9-5.4-11.8-12S29.4,23.9,36,24s11.9,5.4,11.8,12C47.8,42.6,42.4,47.9,35.8,47.8z M59.4,16.8c0,2.4-1.9,4.3-4.3,4.3
	s-4.3-1.9-4.3-4.3s1.9-4.3,4.3-4.3C57.4,12.5,59.4,14.4,59.4,16.8z"/>
</svg>
