<?xml version="1.0" encoding="utf-8"?>
<!-- Generator: Adobe Illustrator 24.0.1, SVG Export Plug-In . SVG Version: 6.00 Build 0)  -->
<svg version="1.1" id="Layer_3" xmlns="http://www.w3.org/2000/svg" xmlns:xlink="http://www.w3.org/1999/xlink" x="0px" y="0px"
	 viewBox="0 0 411.1 479.1" style="enable-background:new 0 0 411.1 479.1;" xml:space="preserve">
<style type="text/css">
	.st0{fill:#F7941D;}
	.st1{fill:#FFC63E;}
	.st2{fill:#F0532D;}
	.st3{fill:#FFCF01;}
	.st4{fill:#B63156;}
	.st5{opacity:0.8;fill:#F0532D;}
	.st6{fill:#FBAD18;}
	.st7{fill:#F89C5B;}
	.st8{fill:#FFD54C;}
	.st9{fill:#FFE9A6;}
	.st10{fill:#F37121;}
	.st11{fill:#D51C29;}
	.st12{fill:#FFF1D0;}
	.st13{fill:#C94726;}
	.st14{fill:#F6916B;}
	.st15{fill:none;stroke:#D64A28;stroke-width:0.1394;stroke-miterlimit:10;}
	.st16{fill:#D64A28;}
	.st17{fill:#FFE18B;}
	.st18{fill:#0DB14B;}
	.st19{fill:#009A46;}
	.st20{fill:#63BE6A;}
	.st21{fill:#A7D6A3;}
	.st22{fill:#00964F;}
	.st23{fill:#C6E3C3;}
	.st24{fill:#85CA9B;}
	.st25{fill:#C0E2C6;}
	.st26{fill:#231F20;}
	.st27{font-family:'Antonio-Regular';}
	.st28{font-size:56.8354px;}
	.st29{fill:none;}
	.st30{fill:#F7F8F8;}
	.st31{font-family:'Quicksand-Regular';}
	.st32{font-size:23.1021px;}
	.st33{font-family:'Antonio-Light';}
	.st34{font-size:92.4085px;}
	.st35{letter-spacing:-5.5;}
	.st36{letter-spacing:-2.2;}
</style>
<g>
	<g>
		<path class="st0" d="M175.6,158l-7.8,16.8l30.9,98.4c0,0,17.5,0.5,52.3-41.3l-11.8-26.5L175.6,158z"/>
		<path class="st1" d="M140.6,156c0,0-19.4,37.4-19.8,73.5c0,0,15.4,30.5,39.1,38c0,0-2.8-98,1.5-96.9l6.3,4.3"/>
		<path class="st1" d="M119.6,152.6"/>
		<path class="st2" d="M119.6,152.6l21,3.4c0,0-19.9,41.1-19.8,73.5c0,0-9-16-8.7-45.1C112.1,184.4,113.8,161.7,119.6,152.6z"/>
		<path class="st3" d="M271.5,212.2c-16,46.4-63.5,72.1-106.1,57.4c-42.6-14.7-64.2-64.2-48.3-110.6c16-46.4,63.5-72.1,106.1-57.4
			C265.9,116.3,287.5,165.8,271.5,212.2z"/>
		<path class="st4" d="M195.3,109.5c0,0,50.1,4.9,65.9,21.3c0,0-10.1-15.4-24.8-23.2C236.4,107.6,211.7,103.8,195.3,109.5"/>
		<path class="st5" d="M196.4,109.2c0,0,50.3,5.7,65.8,22.6c0,0,7.4,10,12.1,27.8L196.4,109.2z"/>
		<polygon class="st2" points="196.4,109.2 274.3,159.7 251,232 		"/>
		<polyline class="st6" points="239.2,205.5 170.5,154.3 197.9,109 		"/>
		<path class="st7" d="M185,111.8"/>
		<polygon class="st8" points="187.2,115.4 134.3,152.2 167.7,174.8 200.4,104.8 		"/>
		<path class="st9" d="M193.8,106.6c0,0-0.7,0.2-2.1,0.6c-11,3.6-62.4,21.3-72.1,45.3l21,3.4l59.6-49.6"/>
		<path class="st10" d="M193.4,105.8c0,0-18.7-1.4-36.3,3.4c0,0-25.9,14.1-37.4,43.5L193.4,105.8"/>
		<path class="st0" d="M157.1,109.3c0,0,17.3-11.7,41.5-11.6l1,7.7c0,0-5.2-0.6-7.1,0.8c-1.9,1.4,0,0,0,0L157.1,109.3z"/>
		<path class="st11" d="M199.5,104.8l-1.8-7.3c0,0,18.9-1.1,38.7,10.1c0,0-8.1-0.9-27.8-0.6c-17.5,0.3,0,0,0,0l-8.2-2.2"/>
		<path class="st12" d="M210.5,110c-0.1,2.7-4.8,4.7-10.5,4.5c-5.7-0.2-10.2-2.5-10.1-5.2c0.1-2.7,4.8-4.7,10.5-4.5
			C206.1,105,210.6,107.3,210.5,110z"/>
		<path class="st13" d="M274.3,159.7L251,232c0,0-37.3,41.1-52.3,41.3c0,0,30.8,0,57-32.1C255.6,241.1,285.2,210.2,274.3,159.7z"/>
		<path class="st2" d="M198.9,109.7V49.8c0,0,0-0.9-1-0.2l-15,10.7c0,0-1.9-0.4-2-2.3l15.3-11.1c0,0,0.3-0.6,0.9-0.6
			c0,0,0.6-0.9,1.1-0.6l0.4-0.1c0,0,0.6-0.4,0.9,0.1c0,0,0.1,0.2,0.5,0.1c0,0,0.5,0,0.4,0.4l0.6,0c0,0,0.2,0.1,0.1,0.4
			c0,0,0.3,0,0.2,0.3c0,0,0.4,0.2,0.3,0.5l0.1,0.4l0.2,0.6l0,0.8v1.9l0,58.5C202,109.7,200.3,111.6,198.9,109.7z"/>
		<path class="st14" d="M196.9,47.6l-15.7,11.3c0,0-0.5-0.4,0-1c0.5-0.5,15.2-10.8,15.2-10.8S196.7,47.1,196.9,47.6z"/>
		<line class="st15" x1="196.6" y1="46.5" x2="197.7" y2="48"/>
		<path class="st15" d="M197.7,45.7c0,0-0.2,0.7,0.4,2.1"/>
		<path class="st15" d="M198.7,45.5c0,0-0.1,1.5,0,2"/>
		<line class="st15" x1="199.8" y1="45.8" x2="199.3" y2="47.5"/>
		<line class="st15" x1="200.5" y1="46.2" x2="199.5" y2="48"/>
		<line class="st15" x1="201.2" y1="46.7" x2="199.8" y2="48.3"/>
		<line class="st15" x1="201.7" y1="47.5" x2="200" y2="48.7"/>
		<path class="st15" d="M202,48.5c0,0-1.8,0.8-2,0.8"/>
		<path class="st16" d="M199.8,49.8c0.8-0.2,2.2-0.5,2.2-0.5"/>
		<polygon class="st14" points="197.4,46.4 197,46.6 197.5,47.5 		"/>
		<polygon class="st14" points="198.4,45.9 197.9,45.9 198.2,47 		"/>
		<polygon class="st14" points="199.3,45.8 199,45.8 199.1,47 		"/>
		<polygon class="st14" points="200.1,46.2 199.8,46.2 199.7,47.3 		"/>
		<polygon class="st14" points="200.9,46.6 200.5,46.5 199.9,47.8 		"/>
		<polygon class="st14" points="201.5,47.5 201.2,47.2 200.2,48.2 		"/>
		<polygon class="st14" points="201.7,48.4 201.5,48 200.2,48.8 		"/>
		<polygon class="st14" points="201.6,48.9 201.6,49.1 200.6,49.3 		"/>
		<polygon class="st14" points="201.7,49.7 200.8,49.8 201.7,49.9 		"/>
		<path class="st14" d="M201.7,50.3H201v59.8c0,0,0.4,0,0.7-0.3C201.9,109.6,201.7,50.3,201.7,50.3z"/>
		<path class="st16" d="M183.2,60.1l-0.5-0.5l15.5-10.9c0,0,1.5-0.5,1.5,0.6c0,1.1,0,2.3,0,2.3v58.6c0,0-0.3-0.1-0.7-0.6V49.7
			c0,0-0.2-1-1.2,0C196.7,50.6,183.2,60.1,183.2,60.1z"/>
	</g>
	<g>
		<path class="st17" d="M198.7,150.7"/>
		<path class="st18" d="M229.9,276c0,0,29.6,18.1,40.4,39.9l-6,2.2c0,0-15.4-30.2-36.1-38.4L229.9,276z"/>
		<path class="st19" d="M96,107.5c0,0,10.1,21.5,29.3,29.1c19.2,7.6,49.4,14,49.4,14s50.7,8.6,77.4,51.4c0,0,30.6,43.7-2.3,89.3
			c-5.7,7.9-20.9,10.5-30,10.7c-43,0.9-82.9-39.4-102.1-77.8c-7-14-13.3-30.2-16.5-45.4C101.2,178.9,91.6,133.5,96,107.5z"/>
		<path class="st18" d="M96,144.8l23.6-11c0,0,5.3,2.8,19.8,7.7l-40.8,22.8C98.6,164.2,96.7,152.9,96,144.8z"/>
		<path class="st20" d="M98.6,164.2l40.8-22.8c0,0-30.9,61.8-29.8,64.5C110.6,208.7,101.9,190,98.6,164.2z"/>
		<path class="st21" d="M109.5,206c0,0-1.7-2.6,29.8-64.5c0,0-13,98.1-12.3,99.1C127,240.6,115.6,223.6,109.5,206z"/>
		<path class="st22" d="M203.6,300.5c-51.1-12-76.6-60-76.6-60"/>
		<path class="st23" d="M139.4,141.5c0,0-12.4,88.1-12.3,99.1l26.8-94.9L139.4,141.5z"/>
		<polyline class="st24" points="153.8,145.6 203.6,300.5 127,240.6 		"/>
		<path class="st25" d="M153.8,145.6l100,139.7c0,0-5.9,22.8-50.2,15.2L153.8,145.6z"/>
		<path class="st18" d="M153.8,145.6l110.9,106.8c0,0-1.4,16.3-10.9,32.9L153.8,145.6z"/>
		<path class="st18" d="M155.1,146.8"/>
		<path class="st20" d="M153.8,145.6l105.9,71.7c0,0,6.6,13.4,5.1,35.1L153.8,145.6z"/>
		<path class="st20" d="M153.8,145.6"/>
	</g>
	<text transform="matrix(1 0 0 1 243.1069 430.2245)" class="st26 st27 st28"> </text>
	<rect x="34.1" y="439.1" class="st29" width="326.8" height="40"/>
	<text transform="matrix(0.9164 0 0 1 34.1342 456.2275)" class="st30 st31 st32">Drink Clean For You, As You Like</text>
	<text transform="matrix(0.9164 0 0 1 28.2533 423.0136)"><tspan x="0" y="0" class="st30 st33 st34">L</tspan><tspan x="29.8" y="0" class="st30 st33 st34">I</tspan><tspan x="53.3" y="0" class="st30 st33 st34">V</tspan><tspan x="93.9" y="0" class="st30 st33 st34">E</tspan><tspan x="126.7" y="0" class="st30 st33 st34 st35">L</tspan><tspan x="149.5" y="0" class="st30 st33 st34 st36">Y </tspan><tspan x="195.6" y="0" class="st30 st33 st34">J</tspan><tspan x="232.5" y="0" class="st30 st33 st34">U</tspan><tspan x="274.4" y="0" class="st30 st33 st34">I</tspan><tspan x="298.1" y="0" class="st30 st33 st34">C</tspan><tspan x="337.9" y="0" class="st30 st33 st34">E</tspan></text>
</g>
</svg>
