<?xml version="1.0" encoding="utf-8"?>
<!-- Generator: Adobe Illustrator 23.0.6, SVG Export Plug-In . SVG Version: 6.00 Build 0)  -->
<svg version="1.1" id="Layer_3" xmlns="http://www.w3.org/2000/svg" xmlns:xlink="http://www.w3.org/1999/xlink" x="0px" y="0px"
	 viewBox="0 0 411.1 479.1" style="enable-background:new 0 0 411.1 479.1;" xml:space="preserve">
<style type="text/css">
	.st0{fill:#F7941D;}
	.st1{fill:#FFC63E;}
	.st2{fill:#F0532D;}
	.st3{fill:#FFCF01;}
	.st4{fill:#B63156;}
	.st5{opacity:0.8;fill:#F0532D;enable-background:new    ;}
	.st6{fill:#FBAD18;}
	.st7{fill:#F89C5B;}
	.st8{fill:#FFD54C;}
	.st9{fill:#FFE9A6;}
	.st10{fill:#F37121;}
	.st11{fill:#D51C29;}
	.st12{fill:#FFF1D0;}
	.st13{fill:#C94726;}
	.st14{fill:#F6916B;}
	.st15{fill:none;stroke:#D64A28;stroke-width:0.1394;stroke-miterlimit:10;}
	.st16{fill:#D64A28;}
	.st17{fill:#FFE18B;}
	.st18{fill:#0DB14B;}
	.st19{fill:#009A46;}
	.st20{fill:#63BE6A;}
	.st21{fill:#A7D6A3;}
	.st22{fill:#00964F;}
	.st23{fill:#C6E3C3;}
	.st24{fill:#85CA9B;}
	.st25{fill:#C0E2C6;}
	.st26{fill:none;}
	.st27{enable-background:new    ;}
	.st28{fill:#F7F8F8;}
</style>
<g>
	<g>
		<path class="st0" d="M175.6,158l-7.8,16.8l30.9,98.4c0,0,17.5,0.5,52.3-41.3l-11.8-26.5L175.6,158z"/>
		<path class="st1" d="M140.6,156c0,0-19.4,37.4-19.8,73.5c0,0,15.4,30.5,39.1,38c0,0-2.8-98,1.5-96.9l6.3,4.3"/>
		<path class="st1" d="M119.6,152.6"/>
		<path class="st2" d="M119.6,152.6l21,3.4c0,0-19.9,41.1-19.8,73.5c0,0-9-16-8.7-45.1C112.1,184.4,113.8,161.7,119.6,152.6z"/>
		<path class="st3" d="M271.5,212.2c-16,46.4-63.5,72.1-106.1,57.4c-42.6-14.7-64.2-64.2-48.3-110.6c16-46.4,63.5-72.1,106.1-57.4
			C265.9,116.3,287.5,165.8,271.5,212.2z"/>
		<path class="st4" d="M195.3,109.5c0,0,50.1,4.9,65.9,21.3c0,0-10.1-15.4-24.8-23.2C236.4,107.6,211.7,103.8,195.3,109.5"/>
		<path class="st5" d="M196.4,109.2c0,0,50.3,5.7,65.8,22.6c0,0,7.4,10,12.1,27.8L196.4,109.2z"/>
		<polygon class="st2" points="196.4,109.2 274.3,159.7 251,232 		"/>
		<polyline class="st6" points="239.2,205.5 170.5,154.3 197.9,109 		"/>
		<path class="st7" d="M185,111.8"/>
		<polygon class="st8" points="187.2,115.4 134.3,152.2 167.7,174.8 200.4,104.8 		"/>
		<path class="st9" d="M193.8,106.6c0,0-0.7,0.2-2.1,0.6c-11,3.6-62.4,21.3-72.1,45.3l21,3.4l59.6-49.6"/>
		<path class="st10" d="M193.4,105.8c0,0-18.7-1.4-36.3,3.4c0,0-25.9,14.1-37.4,43.5L193.4,105.8"/>
		<path class="st0" d="M157.1,109.3c0,0,17.3-11.7,41.5-11.6l1,7.7c0,0-5.2-0.6-7.1,0.8c-1.9,1.4,0,0,0,0L157.1,109.3z"/>
		<path class="st11" d="M199.5,104.8l-1.8-7.3c0,0,18.9-1.1,38.7,10.1c0,0-8.1-0.9-27.8-0.6c-17.5,0.3,0,0,0,0l-8.2-2.2"/>
		<path class="st12" d="M210.5,110c-0.1,2.7-4.8,4.7-10.5,4.5s-10.2-2.5-10.1-5.2c0.1-2.7,4.8-4.7,10.5-4.5
			C206.1,105,210.6,107.3,210.5,110z"/>
		<path class="st13" d="M274.3,159.7L251,232c0,0-37.3,41.1-52.3,41.3c0,0,30.8,0,57-32.1C255.6,241.1,285.2,210.2,274.3,159.7z"/>
		<path class="st2" d="M198.9,109.7V49.8c0,0,0-0.9-1-0.2l-15,10.7c0,0-1.9-0.4-2-2.3l15.3-11.1c0,0,0.3-0.6,0.9-0.6
			c0,0,0.6-0.9,1.1-0.6l0.4-0.1c0,0,0.6-0.4,0.9,0.1c0,0,0.1,0.2,0.5,0.1c0,0,0.5,0,0.4,0.4h0.6c0,0,0.2,0.1,0.1,0.4
			c0,0,0.3,0,0.2,0.3c0,0,0.4,0.2,0.3,0.5l0.1,0.4l0.2,0.6v0.8v1.9v58.5C202,109.7,200.3,111.6,198.9,109.7z"/>
		<path class="st14" d="M196.9,47.6l-15.7,11.3c0,0-0.5-0.4,0-1c0.5-0.5,15.2-10.8,15.2-10.8S196.7,47.1,196.9,47.6z"/>
		<line class="st15" x1="196.6" y1="46.5" x2="197.7" y2="48"/>
		<path class="st15" d="M197.7,45.7c0,0-0.2,0.7,0.4,2.1"/>
		<path class="st15" d="M198.7,45.5c0,0-0.1,1.5,0,2"/>
		<line class="st15" x1="199.8" y1="45.8" x2="199.3" y2="47.5"/>
		<line class="st15" x1="200.5" y1="46.2" x2="199.5" y2="48"/>
		<line class="st15" x1="201.2" y1="46.7" x2="199.8" y2="48.3"/>
		<line class="st15" x1="201.7" y1="47.5" x2="200" y2="48.7"/>
		<path class="st15" d="M202,48.5c0,0-1.8,0.8-2,0.8"/>
		<path class="st16" d="M199.8,49.8c0.8-0.2,2.2-0.5,2.2-0.5"/>
		<polygon class="st14" points="197.4,46.4 197,46.6 197.5,47.5 		"/>
		<polygon class="st14" points="198.4,45.9 197.9,45.9 198.2,47 		"/>
		<polygon class="st14" points="199.3,45.8 199,45.8 199.1,47 		"/>
		<polygon class="st14" points="200.1,46.2 199.8,46.2 199.7,47.3 		"/>
		<polygon class="st14" points="200.9,46.6 200.5,46.5 199.9,47.8 		"/>
		<polygon class="st14" points="201.5,47.5 201.2,47.2 200.2,48.2 		"/>
		<polygon class="st14" points="201.7,48.4 201.5,48 200.2,48.8 		"/>
		<polygon class="st14" points="201.6,48.9 201.6,49.1 200.6,49.3 		"/>
		<polygon class="st14" points="201.7,49.7 200.8,49.8 201.7,49.9 		"/>
		<path class="st14" d="M201.7,50.3H201v59.8c0,0,0.4,0,0.7-0.3C201.9,109.6,201.7,50.3,201.7,50.3z"/>
		<path class="st16" d="M183.2,60.1l-0.5-0.5l15.5-10.9c0,0,1.5-0.5,1.5,0.6s0,2.3,0,2.3v58.6c0,0-0.3-0.1-0.7-0.6V49.7
			c0,0-0.2-1-1.2,0C196.7,50.6,183.2,60.1,183.2,60.1z"/>
	</g>
	<g>
		<path class="st17" d="M198.7,150.7"/>
		<path class="st18" d="M229.9,276c0,0,29.6,18.1,40.4,39.9l-6,2.2c0,0-15.4-30.2-36.1-38.4L229.9,276z"/>
		<path class="st19" d="M96,107.5c0,0,10.1,21.5,29.3,29.1s49.4,14,49.4,14s50.7,8.6,77.4,51.4c0,0,30.6,43.7-2.3,89.3
			c-5.7,7.9-20.9,10.5-30,10.7c-43,0.9-82.9-39.4-102.1-77.8c-7-14-13.3-30.2-16.5-45.4C101.2,178.9,91.6,133.5,96,107.5z"/>
		<path class="st18" d="M96,144.8l23.6-11c0,0,5.3,2.8,19.8,7.7l-40.8,22.8C98.6,164.2,96.7,152.9,96,144.8z"/>
		<path class="st20" d="M98.6,164.2l40.8-22.8c0,0-30.9,61.8-29.8,64.5C110.6,208.7,101.9,190,98.6,164.2z"/>
		<path class="st21" d="M109.5,206c0,0-1.7-2.6,29.8-64.5c0,0-13,98.1-12.3,99.1C127,240.6,115.6,223.6,109.5,206z"/>
		<path class="st22" d="M203.6,300.5c-51.1-12-76.6-60-76.6-60"/>
		<path class="st23" d="M139.4,141.5c0,0-12.4,88.1-12.3,99.1l26.8-94.9L139.4,141.5z"/>
		<polyline class="st24" points="153.8,145.6 203.6,300.5 127,240.6 		"/>
		<path class="st25" d="M153.8,145.6l100,139.7c0,0-5.9,22.8-50.2,15.2L153.8,145.6z"/>
		<path class="st18" d="M153.8,145.6l110.9,106.8c0,0-1.4,16.3-10.9,32.9L153.8,145.6z"/>
		<path class="st18" d="M155.1,146.8"/>
		<path class="st20" d="M153.8,145.6l105.9,71.7c0,0,6.6,13.4,5.1,35.1L153.8,145.6z"/>
		<path class="st20" d="M153.8,145.6"/>
	</g>
	<rect x="34.1" y="439.1" class="st26" width="326.8" height="40"/>
	<g class="st27">
		<path class="st28" d="M36.9,456.2L36.9,456.2c-0.3,0-0.6-0.3-0.6-0.6v-15.1c0-0.3,0.2-0.6,0.5-0.6h0.1h2.7c4.1,0,7.4,3.6,7.4,8.1
			s-3.3,8.1-7.4,8.1H36.9z M39.6,455.1c3.5,0,6.4-3.1,6.4-6.9c0-3.9-2.9-7-6.4-7h-2.2v13.9H39.6z"/>
		<path class="st28" d="M51.3,445.5c0-0.3,0.2-0.6,0.5-0.6c0.3,0,0.5,0.2,0.5,0.6v2.5c0-0.1,0.1-0.2,0.1-0.3
			c0.8-1.3,2.2-2.8,4.1-2.8c0.3,0,0.5,0.2,0.5,0.6c0,0.3-0.2,0.6-0.5,0.6c-1.4,0-2.3,0.8-3,1.8c-0.7,1-1.1,2.2-1.2,2.6
			c0,0.1,0,0.1,0,0.2v5c0,0.3-0.2,0.6-0.5,0.6c-0.3,0-0.5-0.2-0.5-0.6V445.5z"/>
		<path class="st28" d="M60.6,441.8c0-0.3,0.2-0.6,0.5-0.6c0.3,0,0.5,0.3,0.5,0.6v0.5c0,0.3-0.2,0.6-0.5,0.6c-0.3,0-0.5-0.3-0.5-0.6
			V441.8z M60.6,445.5c0-0.3,0.2-0.6,0.5-0.6c0.3,0,0.5,0.2,0.5,0.6v10.2c0,0.3-0.2,0.6-0.5,0.6c-0.3,0-0.5-0.3-0.5-0.6V445.5z"/>
		<path class="st28" d="M74,449.5c0-1.9-1.4-3.5-3.2-3.5c-1.8,0-3.2,1.6-3.2,3.5v6.1v0.1c0,0.1,0,0.2-0.1,0.3
			c-0.1,0.1-0.2,0.2-0.4,0.2h-0.1c-0.1,0-0.3-0.2-0.3-0.3c0,0,0,0,0-0.1c0,0,0,0,0,0v-0.1v-6.1v-0.2v-3.9c0-0.3,0.2-0.6,0.5-0.6
			c0.3,0,0.5,0.3,0.5,0.6v1.1c0.8-1,1.9-1.6,3.2-1.6c2.3,0,4.2,2.1,4.2,4.6v6.1c0,0.3-0.2,0.6-0.5,0.6c-0.3,0-0.5-0.2-0.5-0.6V449.5
			z"/>
		<path class="st28" d="M79.5,440.6c0-0.3,0.2-0.6,0.5-0.6c0.3,0,0.5,0.3,0.5,0.6v10.9l6.1-6.7c0.2-0.2,0.5-0.2,0.7,0
			c0.2,0.2,0.2,0.6,0,0.8l-4,4.4l4,5.3c0.2,0.3,0.2,0.6,0,0.8c-0.1,0.1-0.2,0.1-0.3,0.1c-0.1,0-0.3,0-0.4-0.2l-4-5.2l-2.1,2.3v2.6
			c0,0.3-0.2,0.6-0.5,0.6c-0.3,0-0.5-0.3-0.5-0.6V440.6z"/>
		<path class="st28" d="M105,439.8c1.8,0,3.5,0.7,4.8,1.8c0.2,0.2,0.3,0.6,0.1,0.8c-0.2,0.3-0.5,0.3-0.7,0.1c-1.1-1-2.6-1.6-4.1-1.6
			c-3.7,0-6.7,3.2-6.7,7.1c0,3.9,3,7,6.7,7c1.6,0,3-0.6,4.1-1.6c0.3-0.2,0.6-0.1,0.7,0.1c0.2,0.2,0.2,0.6-0.1,0.8
			c-1.3,1.1-3,1.8-4.8,1.8c-4.3,0-7.7-3.7-7.7-8.2C97.3,443.5,100.8,439.8,105,439.8z"/>
		<path class="st28" d="M113.5,440.6c0-0.3,0.2-0.6,0.5-0.6c0.3,0,0.5,0.3,0.5,0.6v15.1c0,0.3-0.2,0.6-0.5,0.6
			c-0.3,0-0.5-0.3-0.5-0.6V440.6z"/>
		<path class="st28" d="M118.9,450.6c0-3.1,2.2-5.7,5-5.7c2.7,0,4.8,2.3,5,5.3v0v0.1c0,0.3-0.2,0.5-0.5,0.5h-8.5
			c0.1,2.5,1.9,4.3,4,4.3c1.4,0,2.6-0.8,3.3-2.1c0.1-0.3,0.5-0.3,0.7-0.2c0.2,0.2,0.3,0.5,0.2,0.8c-0.9,1.5-2.4,2.6-4.2,2.6
			C121.1,456.2,118.9,453.7,118.9,450.6z M120,449.7h7.9c-0.3-2.1-2-3.7-3.9-3.7C122,446,120.3,447.5,120,449.7z"/>
		<path class="st28" d="M141.2,445.5v10.2c0,0.3-0.2,0.6-0.5,0.6s-0.5-0.3-0.5-0.6V454c-0.9,1.3-2.3,2.2-3.9,2.2
			c-2.7,0-4.9-2.6-4.9-5.7s2.2-5.7,4.9-5.7c1.6,0,3,0.9,3.9,2.2v-1.7c0-0.3,0.2-0.6,0.5-0.6S141.2,445.1,141.2,445.5z M140.2,450.6
			c0-2.5-1.8-4.6-3.9-4.6c-2.1,0-3.9,2-3.9,4.6s1.8,4.6,3.9,4.6C138.4,455.1,140.2,453.1,140.2,450.6z"/>
		<path class="st28" d="M152.8,449.5c0-1.9-1.4-3.5-3.2-3.5c-1.8,0-3.2,1.6-3.2,3.5v6.1v0.1c0,0.1,0,0.2-0.1,0.3
			c-0.1,0.1-0.2,0.2-0.4,0.2h-0.1c-0.1,0-0.3-0.2-0.3-0.3c0,0,0,0,0-0.1c0,0,0,0,0,0v-0.1v-6.1v-0.2v-3.9c0-0.3,0.2-0.6,0.5-0.6
			c0.3,0,0.5,0.3,0.5,0.6v1.1c0.8-1,1.9-1.6,3.2-1.6c2.3,0,4.2,2.1,4.2,4.6v6.1c0,0.3-0.2,0.6-0.5,0.6c-0.3,0-0.5-0.2-0.5-0.6V449.5
			z"/>
		<path class="st28" d="M165,440.6c0-0.3,0.2-0.5,0.5-0.6h0.1h7.6c0.3,0,0.5,0.3,0.5,0.6c0,0.3-0.2,0.6-0.5,0.6H166v6.4h6.2
			c0.3,0,0.5,0.3,0.5,0.6c0,0.3-0.2,0.6-0.5,0.6H166v7c0,0.3-0.2,0.6-0.5,0.6c-0.3,0-0.5-0.3-0.5-0.6V440.6z"/>
		<path class="st28" d="M180.4,444.9c2.7,0,4.9,2.6,4.9,5.7c0,3.1-2.2,5.7-4.9,5.7c-2.7,0-4.9-2.6-4.9-5.7
			C175.5,447.5,177.7,444.9,180.4,444.9z M180.4,455.1c2.1,0,3.9-2,3.9-4.6c0-2.5-1.8-4.6-3.9-4.6c-2.1,0-3.9,2.1-3.9,4.6
			C176.5,453.1,178.3,455.1,180.4,455.1z"/>
		<path class="st28" d="M188.8,445.5c0-0.3,0.2-0.6,0.5-0.6c0.3,0,0.5,0.2,0.5,0.6v2.5c0-0.1,0.1-0.2,0.1-0.3
			c0.8-1.3,2.2-2.8,4.1-2.8c0.3,0,0.5,0.2,0.5,0.6c0,0.3-0.2,0.6-0.5,0.6c-1.4,0-2.3,0.8-3,1.8c-0.7,1-1.1,2.2-1.2,2.6
			c0,0.1,0,0.1,0,0.2v5c0,0.3-0.2,0.6-0.5,0.6c-0.3,0-0.5-0.2-0.5-0.6V445.5z"/>
		<path class="st28" d="M208.7,448.5l-5-7.4c-0.1-0.3-0.1-0.6,0.1-0.8c0.2-0.2,0.6-0.2,0.7,0.1l4.6,7l4.7-7c0.1-0.3,0.5-0.3,0.7-0.1
			c0.2,0.2,0.3,0.5,0.1,0.8l-5,7.4v7.3c0,0.3-0.2,0.6-0.5,0.6c-0.3,0-0.5-0.3-0.5-0.6V448.5z"/>
		<path class="st28" d="M219.3,444.9c2.7,0,4.9,2.6,4.9,5.7c0,3.1-2.2,5.7-4.9,5.7c-2.7,0-4.9-2.6-4.9-5.7
			C214.4,447.5,216.6,444.9,219.3,444.9z M219.3,455.1c2.1,0,3.9-2,3.9-4.6c0-2.5-1.8-4.6-3.9-4.6c-2.1,0-3.9,2.1-3.9,4.6
			C215.4,453.1,217.2,455.1,219.3,455.1z"/>
		<path class="st28" d="M227.6,445.4c0-0.3,0.2-0.6,0.5-0.6s0.5,0.2,0.5,0.6v6.2c0,1.9,1.4,3.5,3.2,3.5c1.8,0,3.2-1.6,3.2-3.5v-6.2
			c0-0.3,0.3-0.6,0.5-0.6c0.3,0,0.5,0.2,0.5,0.6v6.2c0,2.5-1.9,4.6-4.3,4.6c-2.3,0-4.2-2.1-4.2-4.6V445.4z"/>
		<path class="st28" d="M240.1,458c0.8-0.5,1.1-1,1-1.8c-0.3-0.1-0.6-0.3-0.6-0.8v-0.5c0-0.4,0.3-0.8,0.7-0.8c0.4,0,0.7,0.3,0.7,0.8
			v0.6c0,1.3-0.2,2-0.6,2.4c-0.4,0.4-0.9,0.7-1.1,0.7c-0.1,0-0.3-0.1-0.3-0.3C240,458.2,240,458.1,240.1,458z"/>
		<path class="st28" d="M260.3,452h-6.8l-1.3,3.8c-0.1,0.2-0.3,0.4-0.5,0.4c0,0-0.1,0-0.2,0c-0.3-0.1-0.4-0.5-0.3-0.7l5.1-15
			c0.1-0.2,0.3-0.3,0.5-0.3c0.2,0,0.4,0.1,0.5,0.3l5.1,15c0.1,0.3,0,0.6-0.3,0.7c-0.1,0-0.1,0-0.2,0c-0.2,0-0.4-0.1-0.5-0.4
			L260.3,452z M254,450.9h6l-3-8.7L254,450.9z"/>
		<path class="st28" d="M265,453.9c0.2-0.2,0.5-0.3,0.7-0.1c0.7,0.6,1.9,1.3,3.2,1.3c0.8,0,1.5-0.3,2-0.7c0.5-0.4,0.8-0.9,0.8-1.4
			c0-0.5-0.2-0.9-0.7-1.4c-0.4-0.4-1.2-0.6-2.2-0.8l0,0c-0.9-0.2-1.8-0.4-2.3-0.9c-0.7-0.4-1.1-1.2-1.1-2c0-0.9,0.5-1.7,1.1-2.2
			c0.6-0.5,1.5-0.8,2.5-0.8c1.3,0,2.3,0.7,3.1,1.2c0.2,0.2,0.3,0.5,0.1,0.8c-0.1,0.3-0.5,0.3-0.7,0.2c-0.8-0.6-1.5-1.1-2.5-1.1
			c-0.8,0-1.5,0.3-2,0.6c-0.4,0.4-0.7,0.8-0.7,1.3s0.2,0.8,0.6,1.1c0.5,0.3,1.2,0.6,2.1,0.8h0c1,0.2,1.8,0.5,2.5,0.9
			c0.7,0.5,1.2,1.4,1.2,2.3c0,0.9-0.5,1.7-1.2,2.3c-0.7,0.6-1.6,0.9-2.6,0.9c-1.7,0-3-0.9-3.8-1.6
			C264.8,454.4,264.8,454.1,265,453.9z"/>
		<path class="st28" d="M286.7,448.5l-5-7.4c-0.1-0.3-0.1-0.6,0.1-0.8c0.2-0.2,0.6-0.2,0.7,0.1l4.6,7l4.7-7c0.1-0.3,0.5-0.3,0.7-0.1
			c0.2,0.2,0.3,0.5,0.1,0.8l-5,7.4v7.3c0,0.3-0.2,0.6-0.5,0.6c-0.3,0-0.5-0.3-0.5-0.6V448.5z"/>
		<path class="st28" d="M297.3,444.9c2.7,0,4.9,2.6,4.9,5.7c0,3.1-2.2,5.7-4.9,5.7c-2.7,0-4.9-2.6-4.9-5.7
			C292.4,447.5,294.6,444.9,297.3,444.9z M297.3,455.1c2.1,0,3.9-2,3.9-4.6c0-2.5-1.8-4.6-3.9-4.6c-2.1,0-3.9,2.1-3.9,4.6
			C293.4,453.1,295.2,455.1,297.3,455.1z"/>
		<path class="st28" d="M305.6,445.4c0-0.3,0.2-0.6,0.5-0.6s0.5,0.2,0.5,0.6v6.2c0,1.9,1.4,3.5,3.2,3.5c1.8,0,3.2-1.6,3.2-3.5v-6.2
			c0-0.3,0.3-0.6,0.5-0.6c0.3,0,0.5,0.2,0.5,0.6v6.2c0,2.5-1.9,4.6-4.3,4.6c-2.3,0-4.2-2.1-4.2-4.6V445.4z"/>
		<path class="st28" d="M325.9,456.2L325.9,456.2c-0.3,0-0.5-0.3-0.5-0.6v-15.1c0-0.3,0.2-0.6,0.5-0.6c0.3,0,0.5,0.3,0.5,0.6v14.5
			h7.1c0.3,0,0.5,0.3,0.5,0.6c0,0.3-0.2,0.6-0.5,0.6H325.9z"/>
		<path class="st28" d="M337.1,441.8c0-0.3,0.2-0.6,0.5-0.6c0.3,0,0.5,0.3,0.5,0.6v0.5c0,0.3-0.2,0.6-0.5,0.6
			c-0.3,0-0.5-0.3-0.5-0.6V441.8z M337.1,445.5c0-0.3,0.2-0.6,0.5-0.6c0.3,0,0.5,0.2,0.5,0.6v10.2c0,0.3-0.2,0.6-0.5,0.6
			c-0.3,0-0.5-0.3-0.5-0.6V445.5z"/>
		<path class="st28" d="M343,440.6c0-0.3,0.2-0.6,0.5-0.6c0.3,0,0.5,0.3,0.5,0.6v10.9l6.1-6.7c0.2-0.2,0.5-0.2,0.7,0
			c0.2,0.2,0.2,0.6,0,0.8l-4,4.4l4,5.3c0.2,0.3,0.2,0.6,0,0.8c-0.1,0.1-0.2,0.1-0.3,0.1c-0.1,0-0.3,0-0.4-0.2l-4-5.2l-2.1,2.3v2.6
			c0,0.3-0.2,0.6-0.5,0.6c-0.3,0-0.5-0.3-0.5-0.6V440.6z"/>
		<path class="st28" d="M353.6,450.6c0-3.1,2.2-5.7,5-5.7c2.7,0,4.8,2.3,5,5.3v0v0.1c0,0.3-0.2,0.5-0.5,0.5h-8.5
			c0.1,2.5,1.9,4.3,4,4.3c1.4,0,2.6-0.8,3.3-2.1c0.1-0.3,0.5-0.3,0.7-0.2c0.2,0.2,0.3,0.5,0.2,0.8c-0.9,1.5-2.4,2.6-4.2,2.6
			C355.8,456.2,353.6,453.7,353.6,450.6z M354.7,449.7h7.9c-0.3-2.1-2-3.7-3.9-3.7C356.7,446,355,447.5,354.7,449.7z"/>
	</g>
	<g class="st27">
		<path class="st28" d="M34.9,343.6H41v74.1h12.9v5.3H34.9V343.6z"/>
	</g>
	<g class="st27">
		<path class="st28" d="M62.9,343.6h6.2V423h-6.2V343.6z"/>
	</g>
	<g class="st27">
		<path class="st28" d="M104.9,343.6h5.9L99.1,423h-6.4l-12.9-79.4h5.9l10.2,65.1h0L104.9,343.6z"/>
	</g>
	<g class="st27">
		<path class="st28" d="M120.9,343.6h19.2v5.2h-13.1v31h12.3v5.5h-12.3v32.4H140v5.3h-19.1V343.6z"/>
	</g>
	<g class="st27">
		<path class="st28" d="M151,343.6h6.2v74.1H170v5.3H151V343.6z"/>
	</g>
	<g class="st27">
		<path class="st28" d="M191.1,343.6h6.4l-11.9,44.5V423h-6.2v-34.8l-13.1-44.6h6.2l10,35.1h0.1L191.1,343.6z"/>
	</g>
	<g class="st27">
		<path class="st28" d="M228.1,343.6h6.2v60.5c0,6.9-0.9,12-2.6,15.1c-1.7,3.2-4.7,4.8-8.8,4.8c-4.2,0-7.1-1.5-8.8-4.4
			c-1.7-2.9-2.6-7.6-2.6-14.1v-6.8h6.2v9.4c0,4.2,0.4,6.9,1.2,8c0.8,1.2,1.5,1.8,2.1,2s1.3,0.3,2,0.3c2.9,0,4.5-2.1,4.8-6.3
			c0.1-1.7,0.2-3.3,0.2-4.8V343.6z"/>
	</g>
	<g class="st27">
		<path class="st28" d="M266.8,343.6h6.2v59c0,7.5-0.9,12.9-2.6,16.3c-1.7,3.4-5.1,5.1-10.1,5.1s-8.4-1.7-10.2-5.1
			c-1.8-3.4-2.7-8.8-2.7-16.2v-59h6.2v58.8c0,5.5,0.2,9.2,0.7,11c0.8,3.3,2.8,5,5.8,5c2.5,0,4.2-0.8,5.3-2.3c1-1.5,1.6-6.1,1.6-13.6
			V343.6z"/>
	</g>
	<g class="st27">
		<path class="st28" d="M287.1,343.6h6.2V423h-6.2V343.6z"/>
	</g>
	<g class="st27">
		<path class="st28" d="M307,366.6c0-9.6,1.1-16,3.3-19.2c2.2-3.2,5.4-4.8,9.5-4.8c4.1,0,7,1.1,8.8,3.3c1.3,1.6,2.1,3.2,2.5,4.7
			c0.9,3.7,1.4,9.2,1.4,16.5v6.9h-6.2v-7.7c0-6.7-0.3-11.1-1-13.4c-0.7-2.3-1.6-3.7-2.8-4.3c-0.7-0.3-1.4-0.5-2.3-0.5
			c-2.6,0-4.4,1.5-5.4,4.4c-1,2.9-1.5,7.5-1.5,13.8v31.9c0,7.7,0.4,13,1.3,15.9c0.9,2.9,2.6,4.4,5.3,4.4s4.4-1.5,5.2-4.4
			c0.8-2.9,1.2-8.2,1.2-15.9v-6.4h6.2v6.3c0,6.9-0.4,12-1.1,15c-0.7,3.1-1.5,5.2-2.4,6.6c-1.9,2.8-4.9,4.2-9,4.2
			c-4.1,0-7.1-1.4-9.1-4.2c-2.5-3.4-3.8-10.6-3.8-21.5V366.6z"/>
	</g>
	<g class="st27">
		<path class="st28" d="M344.5,343.6h19.2v5.2h-13.1v31H363v5.5h-12.3v32.4h12.9v5.3h-19.1V343.6z"/>
	</g>
</g>
</svg>
