<?xml version="1.0" encoding="utf-8"?>
<!-- Generator: Adobe Illustrator 23.0.6, SVG Export Plug-In . SVG Version: 6.00 Build 0)  -->
<svg version="1.1" id="rose_x5F_linkedin" xmlns="http://www.w3.org/2000/svg" xmlns:xlink="http://www.w3.org/1999/xlink" x="0px"
	 y="0px" viewBox="0 0 71.7 71.6" style="enable-background:new 0 0 71.7 71.6;" xml:space="preserve">
<style type="text/css">
	.st0{fill:#90405E;}
</style>
<path id="linkedin" class="st0" d="M1.2,23.8h14.9v47.8H1.2V23.8z M8.6,0c4.8,0,8.6,3.9,8.6,8.6c0,4.8-3.9,8.6-8.6,8.6S0,13.4,0,8.6
	C0,3.9,3.9,0,8.6,0 M25.4,71.6h14.9V47.9c0-6.2,1.2-12.3,8.9-12.3c7.6,0,7.7,7.1,7.7,12.7v23.2h14.8V45.3c0-12.9-2.8-22.8-17.8-22.8
	c-7.2,0-12.1,4-14.1,7.7h-0.2v-6.5H25.4V71.6z"/>
</svg>
