<?xml version="1.0" encoding="utf-8"?>
<!-- Generator: Adobe Illustrator 23.0.6, SVG Export Plug-In . SVG Version: 6.00 Build 0)  -->
<svg version="1.1" id="Layer_1" xmlns="http://www.w3.org/2000/svg" xmlns:xlink="http://www.w3.org/1999/xlink" x="0px" y="0px"
	 viewBox="0 0 190.9 190.2" style="enable-background:new 0 0 190.9 190.2;" xml:space="preserve">
<style type="text/css">
	.st0{fill-rule:evenodd;clip-rule:evenodd;fill:url(#SVGID_2_);}
	.st1{clip-path:url(#SVGID_4_);fill:url(#SVGID_5_);}
	.st2{display:none;fill-rule:evenodd;clip-rule:evenodd;fill:url(#SVGID_6_);}
	.st3{fill-rule:evenodd;clip-rule:evenodd;fill:url(#SVGID_7_);}
	.st4{clip-path:url(#SVGID_10_);fill:url(#SVGID_11_);}
	.st5{fill-rule:evenodd;clip-rule:evenodd;fill:url(#SVGID_12_);}
</style>
<g id="heart">
	<g id="heart_1_">
		<g>
			<g>
				
					<linearGradient id="SVGID_2_" gradientUnits="userSpaceOnUse" x1="-645.8566" y1="230.9109" x2="-454.9214" y2="230.9109" gradientTransform="matrix(-1 0 0 -1 -454.9214 326.0006)">
					<stop  offset="1.511000e-03" style="stop-color:#AA1F23"/>
					<stop  offset="0.1901" style="stop-color:#AF1F23"/>
					<stop  offset="0.4016" style="stop-color:#BC1F25"/>
					<stop  offset="0.594" style="stop-color:#CF2027"/>
				</linearGradient>
				<path id="SVGID_1_" class="st0" d="M102.8,7.9c61.5-32.3,119,41.1,69.3,100.7c-21.2,25.4-34.4,43-64.6,76.1
					c-6.7,7.3-17.4,7.3-24.1,0C53.3,151.6,40,134,18.8,108.6C-30.8,49,26.7-24.4,88.2,7.9C93,10.4,98,10.4,102.8,7.9"/>
			</g>
			<g>
				<defs>
					<path id="SVGID_3_" d="M102.8,7.9c61.5-32.3,119,41.1,69.3,100.7c-21.2,25.4-34.4,43-64.6,76.1c-6.7,7.3-17.4,7.3-24.1,0
						C53.3,151.6,40,134,18.8,108.6C-30.8,49,26.7-24.4,88.2,7.9C93,10.4,98,10.4,102.8,7.9"/>
				</defs>
				<clipPath id="SVGID_4_">
					<use xlink:href="#SVGID_3_"  style="overflow:visible;"/>
				</clipPath>
				
					<linearGradient id="SVGID_5_" gradientUnits="userSpaceOnUse" x1="-17.4435" y1="798.4913" x2="372.7695" y2="697.4865" gradientTransform="matrix(-1 -6.930951e-04 -6.930951e-04 1 344.0574 -645.7437)">
					<stop  offset="0" style="stop-color:#AA1F23"/>
					<stop  offset="0.1891" style="stop-color:#AF1F23"/>
					<stop  offset="0.4012" style="stop-color:#BC1F25"/>
					<stop  offset="0.594" style="stop-color:#CF2027"/>
					<stop  offset="0.663" style="stop-color:#CC2128"/>
					<stop  offset="0.7204" style="stop-color:#C1232D"/>
					<stop  offset="0.7737" style="stop-color:#B02835"/>
					<stop  offset="0.8244" style="stop-color:#982E3F"/>
					<stop  offset="0.8734" style="stop-color:#78364D"/>
					<stop  offset="0.921" style="stop-color:#523F5E"/>
					<stop  offset="0.9667" style="stop-color:#254A72"/>
					<stop  offset="0.9872" style="stop-color:#0E507C"/>
				</linearGradient>
				<rect x="-30.8" y="-24.4" class="st1" width="252.6" height="216.5"/>
			</g>
		</g>
		
			<linearGradient id="SVGID_6_" gradientUnits="userSpaceOnUse" x1="-119.8918" y1="286.1468" x2="76.4427" y2="286.1468" gradientTransform="matrix(-1 0 0 -1 70.313 326.0006)">
			<stop  offset="0" style="stop-color:#F4344F"/>
			<stop  offset="0.1308" style="stop-color:#EA2F44"/>
			<stop  offset="0.455" style="stop-color:#D6242F"/>
			<stop  offset="0.6661" style="stop-color:#CF2027"/>
			<stop  offset="1" style="stop-color:#CF2027"/>
		</linearGradient>
		<path class="st2" d="M102.8,7.9c44.7-23.5,81.8,8.7,87.2,41.5c3.2,19.8-29.6,35.6-53.6,28.9C83.3,63.3,99.7,18,56.7,31
			c0,0-1.8-15.5,5.5-30.8c8.4,0.6,17.1,3.1,25.9,7.7C93,10.4,98,10.4,102.8,7.9"/>
		<g>
			<g>
				
					<linearGradient id="SVGID_7_" gradientUnits="userSpaceOnUse" x1="-555.8088" y1="309.4175" x2="-482.0383" y2="309.4175" gradientTransform="matrix(-1 0 0 -1 -454.9214 326.0006)">
					<stop  offset="0" style="stop-color:#0C3F5B"/>
					<stop  offset="5.413515e-02" style="stop-color:#1A3C56"/>
					<stop  offset="0.2766" style="stop-color:#4D3244"/>
					<stop  offset="0.4856" style="stop-color:#752A36"/>
					<stop  offset="0.6753" style="stop-color:#92242B"/>
					<stop  offset="0.8394" style="stop-color:#A42025"/>
					<stop  offset="0.959" style="stop-color:#AA1F23"/>
				</linearGradient>
				<path id="SVGID_8_" class="st3" d="M42.3,2.2c13.8-4,29.7-2.8,45.9,5.7c4.2,2.2,8.5,2.5,12.7,0.9l0,0c0,0-53.9,37.3-70.3,19.6
					C22.7,19.7,29,8.5,42.3,2.2"/>
			</g>
			<g>
				<defs>
					<path id="SVGID_9_" d="M42.3,2.2c13.8-4,29.7-2.8,45.9,5.7c4.2,2.2,8.5,2.5,12.7,0.9l0,0c0,0-53.9,37.3-70.3,19.6
						C22.7,19.7,29,8.5,42.3,2.2"/>
				</defs>
				<clipPath id="SVGID_10_">
					<use xlink:href="#SVGID_9_"  style="overflow:visible;"/>
				</clipPath>
				
					<linearGradient id="SVGID_11_" gradientUnits="userSpaceOnUse" x1="301.9704" y1="303.8503" x2="517.2405" y2="303.8503" gradientTransform="matrix(1 0 0 -1 -285.3923 326.0006)">
					<stop  offset="0" style="stop-color:#0E507C"/>
					<stop  offset="0.3878" style="stop-color:#533A55"/>
					<stop  offset="0.7756" style="stop-color:#912731"/>
					<stop  offset="0.959" style="stop-color:#AA1F23"/>
				</linearGradient>
				<rect x="22.7" y="-1.8" class="st4" width="78.3" height="47.9"/>
			</g>
		</g>
	</g>
	
		<linearGradient id="SVGID_12_" gradientUnits="userSpaceOnUse" x1="55.1821" y1="326.4117" x2="-6.7207" y2="151.0447" gradientTransform="matrix(-1 0 0 -1 70.313 326.0006)">
		<stop  offset="2.135003e-02" style="stop-color:#0F5D9C"/>
		<stop  offset="5.735262e-02" style="stop-color:#1A5994"/>
		<stop  offset="0.2458" style="stop-color:#4D446C"/>
		<stop  offset="0.4229" style="stop-color:#75344C"/>
		<stop  offset="0.5836" style="stop-color:#922936"/>
		<stop  offset="0.7226" style="stop-color:#A42228"/>
		<stop  offset="0.824" style="stop-color:#AA1F23"/>
	</linearGradient>
	<path class="st5" d="M50,146.4l-25.2-30.7c0,0-9-11.1-9.7-12c0,0-14.5-17.7-15-41c0,0-1.9-47.6,42.2-60.6c-5.6,2,4.9-0.8-0.3,1.7
		C5.3,21,47.2,59.6,59.9,70.3c0,0,58.6,48.4,47.7,114.4c0,0-8.8,9-20.4,3.1C87.2,187.9,75.2,177.1,50,146.4z"/>
</g>
</svg>
