<?xml version="1.0" encoding="utf-8"?>
<!-- Generator: Adobe Illustrator 23.0.6, SVG Export Plug-In . SVG Version: 6.00 Build 0)  -->
<svg version="1.1" xmlns="http://www.w3.org/2000/svg" xmlns:xlink="http://www.w3.org/1999/xlink" x="0px" y="0px"
	 viewBox="0 0 484 323.1" style="enable-background:new 0 0 484 323.1;" xml:space="preserve">
<style type="text/css">
	.st0{fill:#464D4F;}
	.st1{clip-path:url(#SVGID_3_);fill:url(#SVGID_4_);}
	.st2{filter:url(#Adobe_OpacityMaskFilter);}
	.st3{fill:url(#SVGID_6_);}
	.st4{display:none;mask:url(#SVGID_5_);fill-rule:evenodd;clip-rule:evenodd;fill:url(#SVGID_7_);}
	.st5{clip-path:url(#SVGID_10_);fill:url(#SVGID_11_);}
	.st6{fill-rule:evenodd;clip-rule:evenodd;fill:url(#SVGID_12_);}
</style>
<g id="slogan_and_tagline">
	<g>
		<path class="st0" d="M44.5,244.1c0,13.2-7.4,25-22.5,25c-14.1,0-22-10.9-22-24.7c0-13.7,8-24.7,22.6-24.7
			C36.1,219.6,44.5,229.8,44.5,244.1z M6.7,244.1c0,10.3,5.2,19.5,15.6,19.5c11.1,0,15.6-9.2,15.6-19.4c0-10.4-5-19.1-15.6-19.1
			C11.5,225.1,6.7,233.9,6.7,244.1z"/>
		<path class="st0" d="M53.3,242.9c0-4.9-0.1-7.7-0.1-9.5h5.9c0.1,1,0.2,3.7,0.2,7.1c1.8-4.7,5.9-7.8,11.7-7.9v6
			c-7.2,0.2-11.7,4-11.7,12.8v17h-6.1V242.9z"/>
		<path class="st0" d="M105.6,265.2c0,11.2-4.6,17.6-16.1,17.6c-10.6,0-13.9-5.9-14.5-10.7h6.1c1,3.9,4.1,5.9,8.6,5.9
			c7.9,0,9.9-5,9.9-13v-2.8c-1.9,3.9-5,6.1-10.9,6.1c-8.6,0-14.5-7-14.5-17.3c0-11.4,6.7-18.4,15.1-18.4c6.7,0,9.5,3.1,10.3,5.5
			c0.1-1.6,0.3-3.9,0.3-4.6h5.7c0,2-0.1,6.8-0.1,10.1V265.2z M90.2,263c7.5,0,9.7-5.1,9.7-12.8c0-7.9-2.1-12.6-9.5-12.6
			c-6.5,0-9.8,5.5-9.8,13C80.6,258,84.5,263,90.2,263z"/>
		<path class="st0" d="M141.4,260.7c0,3.2,0.3,6.6,0.5,7.7h-5.8c-0.3-0.8-0.5-2.4-0.6-4.6c-1.2,2.3-4.1,5.4-10.8,5.4
			c-8.3,0-11.8-5.4-11.8-10.7c0-7.8,6.1-11.4,16.6-11.4h5.9v-3c0-3.1-1-6.8-7.5-6.8c-5.8,0-6.8,2.9-7.5,5.6h-5.9
			c0.5-4.8,3.5-10.3,13.5-10.3c8.6,0,13.3,3.5,13.3,11.5V260.7z M135.4,251.3h-5.7c-7,0-10.7,1.9-10.7,6.8c0,3.7,2.5,6.3,6.8,6.3
			c8.4,0,9.5-5.7,9.5-12V251.3z"/>
		<path class="st0" d="M151.8,242.2c0-3,0-6.1-0.1-8.8h5.9c0.2,1,0.3,4.7,0.3,5.7c1.4-3,4.2-6.6,11-6.6c6.6,0,11.7,4,11.7,13.3v22.5
			h-6.1v-21.7c0-5.3-2.1-8.8-7.4-8.8c-6.6,0-9.2,5-9.2,12.1v18.5h-6.1V242.2z"/>
		<path class="st0" d="M193.5,258.4c1,3.8,3.8,6.1,8.6,6.1c5.1,0,7.1-2.2,7.1-5.4c0-3.3-1.6-4.8-8.3-6.4c-10-2.4-12.1-5.5-12.1-10.3
			c0-4.9,3.7-9.8,12.6-9.8c9,0,12.8,5.2,13.2,10.1h-5.8c-0.6-2.2-2.3-5.4-7.6-5.4c-4.9,0-6.4,2.3-6.4,4.6c0,2.6,1.4,3.9,7.9,5.5
			c10.6,2.6,12.8,6.1,12.8,11.2c0,6.1-4.9,10.6-13.6,10.6c-9,0-13.5-4.6-14.4-10.8H193.5z"/>
		<path class="st0" d="M248.1,247.2v21.1h-6.3v-48h18.8c9.9,0,15.1,5.4,15.1,12.8c0,6.3-3.6,10.1-8.2,11.3c3.9,1,7.3,4,7.3,12.3v2.1
			c0,3.3-0.1,7.5,0.7,9.5h-6.2c-0.9-2.1-0.8-5.8-0.8-10.3v-1c0-6.8-1.9-9.8-10.6-9.8H248.1z M248.1,241.9h10.4
			c7.4,0,10.6-2.8,10.6-8.1c0-5.1-3.3-8-9.8-8h-11.2V241.9z"/>
		<path class="st0" d="M288.5,251.9c0.1,7.1,3.7,12.2,9.6,12.2c5.5,0,7.3-2.9,8.4-5.5h6.1c-1.4,4.5-5.2,10.5-14.8,10.5
			c-11,0-15.5-9-15.5-17.9c0-10.4,5.2-18.7,15.9-18.7c11.3,0,15,9,15,16.5c0,1.1,0,2-0.1,2.9H288.5z M307.1,247.7
			c-0.1-5.8-3-10.4-8.9-10.4c-6.2,0-8.9,4.3-9.5,10.4H307.1z"/>
		<path class="st0" d="M363.1,247.9c0-9,0.1-18,0.3-23h-0.3c-2.1,7.8-9.8,28.4-15.3,43.5h-5.7c-4.1-12.3-12.2-35.4-14.4-43.6h-0.2
			c0.3,5.6,0.6,16.2,0.6,24.5v19.1h-6v-48h9.5c5.5,14.9,12.1,34.2,13.8,40.2h0.1c1.2-4.6,9-25.7,14.7-40.2h9.2v48h-6.2V247.9z"/>
		<path class="st0" d="M405.9,260.7c0,3.2,0.3,6.6,0.5,7.7h-5.8c-0.3-0.8-0.5-2.4-0.6-4.6c-1.2,2.3-4.1,5.4-10.8,5.4
			c-8.3,0-11.8-5.4-11.8-10.7c0-7.8,6.1-11.4,16.6-11.4h5.9v-3c0-3.1-1-6.8-7.5-6.8c-5.8,0-6.8,2.9-7.5,5.6H379
			c0.5-4.8,3.5-10.3,13.5-10.3c8.6,0,13.3,3.5,13.3,11.5V260.7z M399.9,251.3h-5.7c-7,0-10.7,1.9-10.7,6.8c0,3.7,2.5,6.3,6.8,6.3
			c8.4,0,9.5-5.7,9.5-12V251.3z"/>
		<path class="st0" d="M445.4,217.7v40.8c0,3.2,0,6.5,0.1,9.9h-5.8c-0.2-0.9-0.3-3.6-0.3-5c-1.7,3.7-5.2,5.8-11,5.8
			c-9,0-14.6-7.3-14.6-17.9c0-10.8,6-18.7,15.7-18.7c6.2,0,9,2.5,9.9,4.5v-19.3H445.4z M429.6,264.1c8.1,0,10-6.1,10-13.7
			c0-7.8-1.7-12.7-9.5-12.7c-6.2,0-10,4.9-10,13.4C420.1,259.5,424.1,264.1,429.6,264.1z"/>
		<path class="st0" d="M459.3,251.9c0.1,7.1,3.7,12.2,9.6,12.2c5.5,0,7.3-2.9,8.4-5.5h6.1c-1.4,4.5-5.2,10.5-14.8,10.5
			c-11,0-15.5-9-15.5-17.9c0-10.4,5.2-18.7,15.9-18.7c11.3,0,15,9,15,16.5c0,1.1,0,2-0.1,2.9H459.3z M477.9,247.7
			c-0.1-5.8-3-10.4-8.9-10.4c-6.2,0-8.9,4.3-9.5,10.4H477.9z"/>
	</g>
	<g>
		<path class="st0" d="M100.7,311.4H88.6v8.6h13.3l-0.4,2.8h-16v-24.4h15.9v2.8H88.6v7.5h12.1V311.4z"/>
		<path class="st0" d="M106.4,322.8v-24.4h4.3c3.5,5.7,11.1,17.8,12.5,20.4h0c-0.2-3.1-0.2-7-0.2-10.9v-9.5h3v24.4h-4
			c-3.2-5.3-11.1-18.3-12.6-21h-0.1c0.2,2.8,0.2,6.9,0.2,11.3v9.7H106.4z"/>
		<path class="st0" d="M132.6,298.4h8.7c6.9,0,11.5,4.7,11.5,11.9c0,7.2-4.5,12.4-11.6,12.4h-8.6V298.4z M135.8,320.1h5.1
			c5.7,0,8.4-4.1,8.4-9.6c0-4.8-2.5-9.2-8.4-9.2h-5.1V320.1z"/>
		<path class="st0" d="M187.9,310.5c0,6.7-3.7,12.7-11.4,12.7c-7.2,0-11.2-5.5-11.2-12.5c0-7,4.1-12.5,11.4-12.5
			C183.6,298.1,187.9,303.2,187.9,310.5z M168.7,310.5c0,5.2,2.7,9.9,7.9,9.9c5.6,0,7.9-4.7,7.9-9.8c0-5.2-2.6-9.7-7.9-9.7
			C171.1,300.8,168.7,305.3,168.7,310.5z"/>
		<path class="st0" d="M196.2,312.1v10.7H193v-24.4h9.5c5,0,7.7,2.7,7.7,6.5c0,3.2-1.8,5.1-4.2,5.7c2,0.5,3.7,2,3.7,6.2v1
			c0,1.7-0.1,3.8,0.3,4.8h-3.2c-0.5-1.1-0.4-2.9-0.4-5.3V317c0-3.5-1-5-5.4-5H196.2z M196.2,309.3h5.3c3.7,0,5.4-1.4,5.4-4.1
			c0-2.6-1.7-4.1-5-4.1h-5.7V309.3z"/>
		<path class="st0" d="M235.2,322.8h-2.5c-0.2-0.5-0.3-1.5-0.3-3.3c-1,1.7-3.2,3.6-7.6,3.6c-7,0-10.7-5.3-10.7-12.3
			c0-7.3,4-12.8,11.3-12.8c5.7,0,9.2,3.1,9.9,7.4h-3.2c-0.8-2.7-2.8-4.7-6.8-4.7c-5.6,0-7.9,4.5-7.9,9.9c0,5,2.2,9.7,7.7,9.7
			c5.5,0,6.8-3.6,6.8-7.7v-0.3h-6.9v-2.8h10V322.8z"/>
		<path class="st0" d="M244.8,315.5l-2.6,7.3H239l8.7-24.4h4l9.1,24.4h-3.5l-2.7-7.3H244.8z M253.7,312.7c-2.3-6.4-3.6-9.8-4.1-11.7
			h0c-0.6,2.1-2,6.2-3.9,11.7H253.7z"/>
		<path class="st0" d="M264.5,322.8v-24.4h4.3c3.5,5.7,11.1,17.8,12.5,20.4h0c-0.2-3.1-0.2-7-0.2-10.9v-9.5h3v24.4h-4
			c-3.2-5.3-11.1-18.3-12.6-21h-0.1c0.2,2.8,0.2,6.9,0.2,11.3v9.7H264.5z"/>
		<path class="st0" d="M299.4,298.4H315v2.8h-12.5v7.9h11.7v2.8h-11.7v10.9h-3.2V298.4z"/>
		<path class="st0" d="M320.7,315.5l-2.6,7.3h-3.2l8.7-24.4h4l9.1,24.4h-3.5l-2.7-7.3H320.7z M329.6,312.7
			c-2.3-6.4-3.6-9.8-4.1-11.7h0c-0.6,2.1-2,6.2-3.9,11.7H329.6z"/>
		<path class="st0" d="M343.6,298.4v24.4h-3.2v-24.4H343.6z"/>
		<path class="st0" d="M350.2,298.4h3.2V320h12.7l-0.5,2.8h-15.5V298.4z"/>
		<path class="st0" d="M372.1,298.4v14.7c0,5.7,3.2,7.3,6.3,7.3c3.6,0,6.2-1.7,6.2-7.3v-14.7h3.3v14.5c0,7.9-4.4,10.2-9.6,10.2
			c-5.1,0-9.5-2.5-9.5-9.9v-14.7H372.1z"/>
		<path class="st0" d="M397.3,312.1v10.7h-3.2v-24.4h9.5c5,0,7.7,2.7,7.7,6.5c0,3.2-1.8,5.1-4.2,5.7c2,0.5,3.7,2,3.7,6.2v1
			c0,1.7-0.1,3.8,0.3,4.8h-3.2c-0.5-1.1-0.4-2.9-0.4-5.3V317c0-3.5-1-5-5.4-5H397.3z M397.3,309.3h5.3c3.7,0,5.4-1.4,5.4-4.1
			c0-2.6-1.7-4.1-5-4.1h-5.7V309.3z"/>
		<path class="st0" d="M432.1,311.4h-12.1v8.6h13.3l-0.4,2.8h-16v-24.4h15.9v2.8h-12.7v7.5h12.1V311.4z"/>
	</g>
</g>
<g id="heart">
	<g id="heart_1_">
		<g>
			<defs>
				<path id="SVGID_1_" d="M258.5,7.9c61.5-32.3,119,41.1,69.3,100.7c-21.2,25.4-34.4,43-64.6,76.1c-6.7,7.3-17.4,7.3-24.1,0
					c-30.1-33.1-43.4-50.7-64.6-76.1C124.9,49,182.4-24.4,243.9,7.9C248.7,10.4,253.7,10.4,258.5,7.9"/>
			</defs>
			
				<linearGradient id="SVGID_2_" gradientUnits="userSpaceOnUse" x1="-364.1554" y1="95.1333" x2="-173.2597" y2="95.1333" gradientTransform="matrix(-1 0 0 1 -17.4962 0)">
				<stop  offset="1.511000e-03" style="stop-color:#AA1F23"/>
				<stop  offset="0.1901" style="stop-color:#AF1F23"/>
				<stop  offset="0.4016" style="stop-color:#BC1F25"/>
				<stop  offset="0.594" style="stop-color:#CF2027"/>
			</linearGradient>
			<use xlink:href="#SVGID_1_"  style="overflow:visible;fill-rule:evenodd;clip-rule:evenodd;fill:url(#SVGID_2_);"/>
			<clipPath id="SVGID_3_">
				<use xlink:href="#SVGID_1_"  style="overflow:visible;"/>
			</clipPath>
			
				<linearGradient id="SVGID_4_" gradientUnits="userSpaceOnUse" x1="264.4276" y1="-6.5235" x2="654.6406" y2="94.4813" gradientTransform="matrix(-1 -6.930951e-04 6.930951e-04 -1 781.0951 146.4079)">
				<stop  offset="0" style="stop-color:#AA1F23"/>
				<stop  offset="0.1891" style="stop-color:#AF1F23"/>
				<stop  offset="0.4012" style="stop-color:#BC1F25"/>
				<stop  offset="0.594" style="stop-color:#CF2027"/>
				<stop  offset="0.663" style="stop-color:#CC2128"/>
				<stop  offset="0.7204" style="stop-color:#C1232D"/>
				<stop  offset="0.7737" style="stop-color:#B02835"/>
				<stop  offset="0.8244" style="stop-color:#982E3F"/>
				<stop  offset="0.8734" style="stop-color:#78364D"/>
				<stop  offset="0.921" style="stop-color:#523F5E"/>
				<stop  offset="0.9667" style="stop-color:#254A72"/>
				<stop  offset="0.9872" style="stop-color:#0E507C"/>
			</linearGradient>
			<rect x="124.9" y="-24.4" class="st1" width="252.6" height="216.5"/>
		</g>
		<defs>
			<filter id="Adobe_OpacityMaskFilter" filterUnits="userSpaceOnUse" x="212.2" y="-0.2" width="133.7" height="80">
				<feFlood  style="flood-color:white;flood-opacity:1" result="back"/>
				<feBlend  in="SourceGraphic" in2="back" mode="normal"/>
			</filter>
		</defs>
		<mask maskUnits="userSpaceOnUse" x="212.2" y="-0.2" width="133.7" height="80" id="SVGID_5_">
			<g class="st2">
				
					<linearGradient id="SVGID_6_" gradientUnits="userSpaceOnUse" x1="-1716.4424" y1="1499.8826" x2="-1844.4576" y2="1618.4622" gradientTransform="matrix(1 0 0 1 2066.1172 -1524.8197)">
					<stop  offset="0" style="stop-color:#FFFFFF"/>
					<stop  offset="1" style="stop-color:#000000"/>
				</linearGradient>
				<rect x="212.2" y="0" class="st3" width="134.4" height="80.3"/>
			</g>
		</mask>
		
			<linearGradient id="SVGID_7_" gradientUnits="userSpaceOnUse" x1="161.8342" y1="39.8524" x2="358.1687" y2="39.8524" gradientTransform="matrix(-1 0 0 1 507.7382 0)">
			<stop  offset="0" style="stop-color:#F4344F"/>
			<stop  offset="0.1308" style="stop-color:#EA2F44"/>
			<stop  offset="0.455" style="stop-color:#D6242F"/>
			<stop  offset="0.6661" style="stop-color:#CF2027"/>
			<stop  offset="1" style="stop-color:#CF2027"/>
		</linearGradient>
		<path class="st4" d="M258.5,7.9c44.7-23.5,81.8,8.7,87.2,41.5c3.2,19.8-29.6,35.6-53.6,28.9C239,63.3,255.4,18,212.4,31
			c0,0-1.8-15.5,5.5-30.8c8.4,0.6,17.1,3.1,25.9,7.7C248.7,10.4,253.7,10.4,258.5,7.9"/>
		<g>
			<defs>
				<path id="SVGID_8_" d="M198,2.2c13.8-4,29.7-2.8,45.9,5.7c4.2,2.2,8.5,2.5,12.7,0.9l0,0c0,0-53.9,37.3-70.3,19.6
					C178.4,19.7,184.7,8.5,198,2.2"/>
			</defs>
			
				<linearGradient id="SVGID_9_" gradientUnits="userSpaceOnUse" x1="-274.1234" y1="16.5618" x2="-200.3058" y2="16.5618" gradientTransform="matrix(-1 0 0 1 -17.4962 0)">
				<stop  offset="0" style="stop-color:#0C3F5B"/>
				<stop  offset="5.413515e-02" style="stop-color:#1A3C56"/>
				<stop  offset="0.2766" style="stop-color:#4D3244"/>
				<stop  offset="0.4856" style="stop-color:#752A36"/>
				<stop  offset="0.6753" style="stop-color:#92242B"/>
				<stop  offset="0.8394" style="stop-color:#A42025"/>
				<stop  offset="0.959" style="stop-color:#AA1F23"/>
			</linearGradient>
			<use xlink:href="#SVGID_8_"  style="overflow:visible;fill-rule:evenodd;clip-rule:evenodd;fill:url(#SVGID_9_);"/>
			<clipPath id="SVGID_10_">
				<use xlink:href="#SVGID_8_"  style="overflow:visible;"/>
			</clipPath>
			
				<linearGradient id="SVGID_11_" gradientUnits="userSpaceOnUse" x1="457.683" y1="22.1618" x2="672.9531" y2="22.1618" gradientTransform="matrix(1 0 0 1 -285.3923 0)">
				<stop  offset="0" style="stop-color:#0E507C"/>
				<stop  offset="0.3878" style="stop-color:#533A55"/>
				<stop  offset="0.7756" style="stop-color:#912731"/>
				<stop  offset="0.959" style="stop-color:#AA1F23"/>
			</linearGradient>
			<rect x="178.4" y="-1.8" class="st5" width="78.3" height="47.9"/>
		</g>
	</g>
	
		<linearGradient id="SVGID_12_" gradientUnits="userSpaceOnUse" x1="336.9469" y1="-0.393" x2="275.0441" y2="174.974" gradientTransform="matrix(-1 0 0 1 507.7382 0)">
		<stop  offset="2.135003e-02" style="stop-color:#0F5D9C"/>
		<stop  offset="5.735262e-02" style="stop-color:#1A5994"/>
		<stop  offset="0.2458" style="stop-color:#4D446C"/>
		<stop  offset="0.4229" style="stop-color:#75344C"/>
		<stop  offset="0.5836" style="stop-color:#922936"/>
		<stop  offset="0.7226" style="stop-color:#A42228"/>
		<stop  offset="0.824" style="stop-color:#AA1F23"/>
	</linearGradient>
	<path class="st6" d="M205.7,146.4l-25.2-30.7c0,0-9-11.1-9.7-12c0,0-14.5-17.7-15-41c0,0-1.9-47.6,42.2-60.6
		c-5.6,2,4.9-0.8-0.3,1.7c-36.7,17.2,5.2,55.8,17.9,66.5c0,0,58.6,48.4,47.7,114.4c0,0-8.8,9-20.4,3.1
		C242.9,187.9,230.9,177.1,205.7,146.4z"/>
</g>
</svg>
